<?xml version="1.0" encoding="UTF-8" standalone="no"?>
<!DOCTYPE svg PUBLIC "-//W3C//DTD SVG 1.1//EN" "http://www.w3.org/Graphics/SVG/1.1/DTD/svg11.dtd">
<svg width="100%" height="100%" viewBox="0 0 600 520" version="1.1" xmlns="http://www.w3.org/2000/svg" xmlns:xlink="http://www.w3.org/1999/xlink" xml:space="preserve" xmlns:serif="http://www.serif.com/" style="fill-rule:evenodd;clip-rule:evenodd;">
    <g id="Layer3" transform="matrix(1,0,0,1,50,10)">
        <clipPath id="_clip1">
            <path d="M550,-10L550,510L-50,510L-50,-10L550,-10ZM395.666,228.915C389.774,228.915 384.99,233.72 384.99,239.638C384.99,245.556 389.774,250.361 395.666,250.361C401.559,250.361 406.343,245.556 406.343,239.638C406.343,233.72 401.559,228.915 395.666,228.915ZM174.824,389.442C168.932,389.442 164.148,394.247 164.148,400.165C164.148,406.083 168.932,410.888 174.824,410.888C180.717,410.888 185.501,406.083 185.501,400.165C185.501,394.247 180.717,389.442 174.824,389.442ZM259.296,129.921C253.403,129.921 248.619,134.726 248.619,140.644C248.619,146.562 253.403,151.367 259.296,151.367C265.189,151.367 269.973,146.562 269.973,140.644C269.973,134.726 265.189,129.921 259.296,129.921ZM122.739,228.915C116.846,228.915 112.062,233.72 112.062,239.638C112.062,245.556 116.846,250.361 122.739,250.361C128.631,250.361 133.415,245.556 133.415,239.638C133.415,233.72 128.631,228.915 122.739,228.915ZM343.591,389.442C337.698,389.442 332.914,394.247 332.914,400.165C332.914,406.083 337.698,410.888 343.591,410.888C349.483,410.888 354.267,406.083 354.267,400.165C354.267,394.247 349.483,389.442 343.591,389.442Z"/>
        </clipPath>
        <g clip-path="url(#_clip1)">
            <g transform="matrix(0.0466994,0,0,0.0466994,-21.6184,8.79661)">
                <path d="M2241.35,8468.57L2172.37,8362.68C2172.37,8362.68 2149.53,8386.02 2138.72,8398.43C2127.48,8411.33 2104.92,8440.07 2104.92,8440.07C2104.92,8440.07 2090.36,8415.36 2074.04,8379.4C2058.94,8346.1 2042.34,8302.99 2034.51,8264.93C2028.6,8236.24 2025.58,8220.42 2024.05,8200.8C2020.37,8153.51 2022.88,8129.92 2022.88,8129.92L1859.99,7869.31C2080.04,7558.58 2380.26,7343 2730,7343C3711.29,7343 4315.95,8332.98 5051.68,8668.04L5151.51,8790.76L4825.84,8872.48L4769.51,8952.73C4775.74,8935.4 4782.77,8920.21 4791,8908C4667,8905 4546,8879 4429,8838L4731,9111C4731.96,9106.48 4732.91,9101.96 4733.86,9097.45L4733.86,9288.02L4643.55,9288.02C4667.79,9280.81 4691.94,9273.14 4716,9265C4667.05,9278.1 4618.62,9285.55 4570.66,9288.02L4497.8,9288.02C3672.67,9246.02 2985.2,7804.07 2241.35,8468.57Z"/>
            </g>
            <g transform="matrix(0.0466994,0,0,0.0466994,-21.6184,8.79661)">
                <path d="M1976.33,8055.45L1953.87,8019.52C2128.25,7737.36 2382.91,7523 2735,7523C3841,7523 4247,8528 5010,8770C4596,8856 4215,8639 3840,8370C4041,8674 4326,8919 4605,9145C3795,9145 3489,8165 2675,8165C2486.21,8159.35 2304.76,8231.95 2172.37,8362.68C2148.19,8386.55 2125.64,8412.36 2104.99,8440C2099.52,8430.4 2094.31,8420.8 2089.35,8411.21C2084.76,8402.2 2079.5,8391.43 2074.04,8379.4C2066.26,8362.22 2058.07,8342.44 2050.89,8322.09C2044.5,8303.57 2039.14,8285.05 2034.84,8266.52C2034.73,8265.99 2034.62,8265.46 2034.51,8264.93C2031.67,8251.15 2029.5,8240.34 2027.84,8230.65C2026.17,8220.04 2024.85,8209.44 2023.9,8198.84C2022.52,8180.49 2022.08,8165.81 2022.04,8154.8C2022.09,8146.51 2022.37,8138.21 2022.88,8129.92C2028.8,8033.28 2066.07,7936.64 2140,7840C2083.21,7904.98 2021.06,7970.55 1976.33,8055.45Z" style="fill:white;"/>
            </g>
            <g transform="matrix(0.0466994,0,0,0.0466994,-21.6184,8.79661)">
                <path d="M7031.6,8834.83C7025.23,8781.6 7027.13,8713.59 7020.33,8651.64C7427.6,8489.34 7770.63,8177.17 8033,7865C8671,7072 9704,7233 9918,7372C10156.6,7527.55 10347.2,8015.51 10480.6,8373.18C10295.4,8220 10094.9,8068.54 9972.23,7889.1C9993.52,8001.19 9987.7,8123.51 9880,8250C9878.11,8247.71 9850.06,8290.94 9816.29,8344.12C9714.02,8199.35 9508.72,8121.11 9260,8125C8768.88,8131.92 8495.47,8670.9 8001.22,8995.94C7810.3,9080.77 7573.18,9166.5 7235.3,9236.56C7418.43,9117.76 7267.34,9113.16 7202.96,9046.53C7350.23,8980.15 7463.37,8870.91 7532,8808C7397.33,8836.02 7197.3,8855.05 7031.6,8834.83ZM7133.03,8922.59C7063.71,8946.43 7041.11,8905.72 7032.36,8840.82C7074.3,8858.09 7108.23,8888.19 7133.03,8922.59Z"/>
            </g>
            <g transform="matrix(0.0466994,0,0,0.0466994,-21.6184,8.79661)">
                <path d="M9972.23,7889.1C9993.52,8001.19 9987.7,8123.51 9880,8250C9755,8099 9543,8005 9260,8005C8446,8005 8435,8875 7350,9100C7629,8919 7774,8739 7990,8465C7615,8734 7399,8711 7090,8730C8158,8348 8027,7355 9485,7443C9900.99,7467.62 10080.6,7803.77 10225.4,8160.9C10175.7,8117.24 10128.1,8072.66 10084.5,8026.54C10085.5,8016.4 10086,8006.87 10086,7998C10086,7872 10004,7786 9940,7765C9951.92,7804.64 9964.07,7846.11 9972.23,7889.1Z" style="fill:white;"/>
            </g>
            <g transform="matrix(2.13897,0,0,2.13897,144.685,128.697)">
                <g transform="matrix(0.0246374,0,0,0.0246374,-91.4515,-78.344)">
                    <path d="M4167,6140C4167,6139.5 4167,6139 4167,6138.5C4167,5182.32 4953.82,4395.5 5910,4395.5C6865.61,4395.5 7652.18,5181.39 7653,6137C7653,7530 6315,7807 6332,8061C6731,8115 7125,8151 7511,8152C8086,7680 8483,6939 8483,6137C8482.18,4726.06 7320.94,3565.5 5910,3565.5C4498.49,3565.5 3337,4726.99 3337,6138.5C3337,6139 3337,6139.5 3337,6140" style="fill:white;fill-rule:nonzero;stroke:black;stroke-width:160px;"/>
                    <path d="M4042,5684C3993.36,5717.64 3935.61,5735.67 3876.47,5735.67C3780.93,5735.67 3691.28,5688.62 3637,5610C3546.81,5478.81 3580.17,5296.71 3711,5206C3842.19,5115.81 4024.29,5149.17 4115,5280C4205.39,5410.94 4172.5,5592.98 4042,5684ZM4024,5575C4059.67,5552.79 4082.6,5521.4 4089,5486C4104.28,5400.32 4019.06,5312.4 3900,5291C3781.32,5269.62 3670.59,5321.83 3654,5407C3653.93,5407.39 3653.85,5407.79 3653.78,5408.19C3638.68,5493.86 3723.97,5581.68 3843,5603C3909.14,5615.01 3975.84,5604.69 4024,5575ZM4406,4968L4227,5299C4258,5181 4139,5132 4047,5080C3952,5026 3825,4936 3740,5002L3928,4700C3907,4840 4025,4885 4134,4941C4227,4990 4312,5060 4406,4968ZM3961,4640L4125,4765C4116,4703 4111,4588 4179,4540L4412,4773C4489,4845 4450,4907 4433,4959L4701,4670C4628,4701 4598,4736 4516,4656L4280,4431C4371,4326 4435,4344 4507,4344L4365,4208L3961,4640ZM4889,4469C4717.63,4438.55 4621.52,4279.73 4676,4117C4704.12,4033.53 4768.07,3960.42 4852,3915.79C4926.46,3876.2 5011.04,3862 5089,3876C5260.37,3906.45 5356.48,4065.27 5302,4228C5273.88,4311.47 5209.93,4384.58 5126,4429.21C5051.54,4468.8 4966.96,4483 4889,4469ZM4975,4377C5018.88,4386.78 5062.2,4380.79 5098,4360C5100.01,4358.82 5102,4357.59 5103.95,4356.32C5186.95,4302.43 5204.34,4178.03 5143,4077C5141.47,4074.45 5139.89,4071.93 5138.27,4069.44C5074.04,3970.53 4954.28,3931.2 4869,3981C4781.78,4032.84 4761.93,4160.56 4825,4264C4859.81,4321.77 4915.13,4363.44 4975,4377Z" style="fill-rule:nonzero;"/>
                    <path d="M4975,4348C5150,4150 5423,4437 5640,4288C5570,4500 5140,4315 4975,4348Z" style="fill-rule:nonzero;"/>
                    <path d="M5199,3777L5530,3732C5434,3811 5504,3943 5520,4010C5546,4121 5588,4193 5662,4186C5735,4179 5746,4062 5733,3977C5725,3922 5737,3757 5621,3717L5935,3697C5849,3762 5868,3878 5878,3989C5886,4089 5855,4210 5971,4269L5767,4279L5772,4213C5493,4393 5416,4311 5367,4038C5356,3977 5354,3794 5199,3777ZM6305,3716L5965,3699C6072,3732 6058,3877 6054,3982C6050,4091 6077,4219 5982,4266L6274,4283C6169,4227 6188,4105 6196,3983C6204,3878 6189,3730 6305,3716ZM6502,3744L6803,3854L6823,4249L7198,4024L7411,4171C7230,4148 7190,4288 7123,4377C7068,4451 6956,4563 7025,4655L6738,4479C6920,4495 7016,4321 7097,4199L6727,4397L6680,4019C6615,4132 6555,4324 6633,4434L6295,4293C6451,4309 6504,4148 6530,4097C6584,3992 6656,3868 6502,3744Z" style="fill-rule:nonzero;"/>
                    <path d="M7448,4618L7548,4415L7356,4527L7448,4618ZM7278,4571C7183,4614 7103,4650 7170,4780L6913,4585C7058,4638 7565,4315 7565,4315L7683,4428C7683,4428 7395,4960 7428,5058L7223,4823C7326,4878 7360,4801 7408,4707L7278,4571Z" style="fill-rule:nonzero;"/>
                    <path d="M7795,4560C7841,4684 7762,4777 7665,4855C7562,4938 7448,5028 7340,4963L7673,5468L7908,5315C7690,5351 7634,5218 7558,5108C7745,4961 7878,4779 8018,4870L7795,4560ZM8310,5575L8358,5865C8265,5730 8134,5738 8030,5680C7928,5693 7774,5680 7745,5810L7658,5493C7750,5594 7852,5552 7953,5528C8036,5434 8171,5369 8195,5198L8300,5530C8203,5413 8181,5521 8128,5570C8193,5618 8253,5677 8310,5575ZM8353,5893L8363,6174C8374,6452 8043,6494 8045,6175C7926,6175 7819,6133 7758,6268L7750,5920C7826,6053 7931,6021 8038,6018C8152,6013 8308,6032 8353,5893ZM8120,6175C8136,6327 8302,6295 8288,6173L8120,6175Z" style="fill-rule:nonzero;"/>
                    <path d="M8351,6412L8271,6815L8149,6784C8202,6770 8219,6744 8233,6637L8069,6602C8051,6655 8043,6742 8100,6771L7887,6733C7964,6721 7969,6642 7981,6587L7820,6554C7800,6636 7773,6686 7847,6724L7688,6691L7770,6292C7782,6415 7953,6434 8047,6453C8146,6474 8249,6516 8351,6412Z" style="fill-rule:nonzero;"/>
                    <path d="M7930,7516L8097,7245C7985,7348 7910,7236 7795,7178L8145,7128L8255,6872C8195,6993 8042,6924 7924,6860C7836,6813 7730,6803 7713,6637L7599,6936C7703,6809 7924,6967 8023,7017L7467,7128C7647,7234 7916,7316 7930,7516ZM7650,7322C7456,7284 7380,7389 7455,7448C7508,7490 7682,7374 7791,7461C7970,7603 7699,7810 7687,7800L7552,7696C7750,7734 7771,7618 7723,7580C7657,7527 7492,7665 7378,7568C7241,7451 7413,7208 7495,7207L7650,7322Z" style="fill-rule:nonzero;"/>
                    <path d="M7674,7851L7357,8159L7221,8039C7272,8059 7344,8050 7417,7971L7321,7859C7276,7892 7209,7956 7239,8013L7088,7847C7157,7883 7207,7821 7248,7783L7147,7676C7083,7731 7007,7805 7045,7879L6933,7735L7256,7448C7195,7555 7337,7653 7402,7723C7471,7797 7530,7876 7674,7851Z" style="fill-rule:nonzero;"/>
                </g>
                <g id="arms" transform="matrix(0.0246374,0,0,0.0246374,-91.4515,-78.344)">
                    <path d="M7420,4410L7420,6550C7420,7227 7359,7581 5910,7910C4461,7581 4400,7227 4400,6550L4400,4410L7420,4410Z" style="fill:white;fill-rule:nonzero;stroke:black;stroke-width:80px;"/>
                    <path d="M7420,6060L4400,6060M5910,7910L5910,4410" style="fill:none;fill-rule:nonzero;stroke:black;stroke-width:60px;"/>
                    <path d="M5502,6303L5474,6315L5614,6620L5629,6576L5502,6303ZM5434,6327L5404,6338L5586,6733L5601,6690L5434,6327ZM5364,6352L5336,6362L5558,6847L5573,6803L5364,6352ZM5293,6370L5262,6376L5530,6960L5545,6916L5293,6370ZM5138,6380L5102,6379L5474,7187L5489,7143L5138,6380ZM5056,6379L5020,6372L5446,7300L5461,7256L5056,6379ZM5216,6376L5185,6378L5502,7073L5517,7030L5216,6376ZM5708,7670L5403,7618L5430,7473C5369,7441 5250,7380 5273,7535C5174,7517 5129,7433 5210,7365C5092,7267 4979,7272 5023,7408C4901,7394 4862,7238 5010,7178C4966,7038 4834,7097 4835,7183C4758,7131 4743,6998 4915,6993C4867,6916 4839,6778 4698,6895C4633,6888 4640,6676 4838,6733C4854,6624 4768,6473 4660,6613C4579,6563 4682,6365 4858,6495C4875,6382 4883,6274 4765,6218C4729,6200 4694,6239 4790,6298C4779,6350 4750,6366 4713,6365C4610,6250 4683,6140 4828,6173C4907,6189 5062,6266 5150,6258C5335,6261 5663,6053 5795,6315C5796,6767 5753,7218 5708,7670ZM5455,7383L5680,6470C5709,6352 5592,6228 5473,6275C5321.7,6343.11 5153.13,6363.35 4990,6333C4987,6980 5179,7260 5455,7383Z" style="fill-rule:nonzero;"/>
                    <path d="M7310,5146L7353,5238L7310,5329M6018,5146L5975,5238L6018,5329M6755,5933L6664,5975L6573,5933M6755,4543L6664,4500L6573,4543M7155,5933C7206,5956 7224,5980 7290,5953L7349,5971L7331,5918C7366,5852 7338,5825 7310,5775M6172,5933C6122,5956 6103,5980 6037,5953L5979,5971L5997,5918C5961,5852 5990,5825 6018,5775M7155,4543C7206,4519 7224,4495 7290,4522L7349,4504L7331,4557C7366,4623 7338,4650 7310,4700M6172,4543C6122,4519 6103,4495 6037,4522L5979,4504L5997,4557C5961,4623 5990,4650 6018,4700M7310,4543L6018,4543L6018,5933L7310,5933L7310,4543ZM7230,4623L6098,4623L6098,5853L7230,5853L7230,4623Z" style="fill:none;fill-rule:nonzero;stroke:black;stroke-width:40px;"/>
                    <path d="M7230,5783C7174,5768 7142,5781 7160,5853L7230,5853L7230,5783ZM6098,5783C6153,5768 6185,5781 6168,5853L6098,5853L6098,5783ZM7230,4693C7174,4707 7142,4694 7160,4623L7230,4623L7230,4693ZM6098,4693C6153,4707 6185,4694 6168,4623L6098,4623L6098,4693ZM7230,5379C7200,5379 7199,5348 7199,5318C7199,5288 7158,5238 7158,5238C7158,5238 7199,5187 7199,5157C7199,5127 7200,5096 7230,5096M6098,5379C6128,5379 6129,5348 6129,5318C6129,5288 6170,5238 6170,5238C6170,5238 6129,5187 6129,5157C6129,5127 6128,5096 6098,5096M6805,5853C6805,5822 6775,5821 6744,5821C6714,5821 6664,5780 6664,5780C6664,5780 6613,5821 6583,5821C6553,5821 6523,5822 6523,5853M6805,4623C6805,4653 6775,4654 6744,4654C6714,4654 6664,4695 6664,4695C6664,4695 6613,4654 6583,4654C6553,4654 6523,4653 6523,4623" style="fill-rule:nonzero;stroke:black;stroke-width:40px;"/>
                    <path d="M6254,5036C6249,5014 6289,4981 6334,5074C6375,5100 6403,5152 6463,5098C6417,5029 6374,4960 6351,4885C6323,4847 6246,4806 6306,4774C6294,4759 6307,4728 6342,4739C6351,4703 6391,4721 6393,4739C6425,4718 6447,4762 6430,4822C6406,4894 6468,4936 6510,4985C6574,4937 6639,4896 6723,4910C6738,4896 6752,4881 6745,4860C6727,4849 6710,4847 6714,4815C6668,4809 6564,4861 6568,4751C6611,4834 6663,4775 6725,4782C6720,4762 6702,4700 6783,4710C6827,4672 6887,4676 6931,4705C7002,4692 7008,4705 6973,4746C6986,4766 7006,4801 6983,4812C6998,4837 6998,4884 6974,4876C6980,4914 6963,4946 6945,4930C6945,4957 6928,5011 6911,4987C6898,5002 6895,5054 6869,5031L6833,5065C6835,5146 6858,5224 6908,5295C7050,5329 7003,5247 7003,5192C7003,5121 7110,5028 7110,4969C7110,4923 7043,5006 7058,5050C7034,5074 7020,5059 7003,5055C6981,5089 6953,5093 6925,5090C6943,4990 7007,4877 7070,4877C7138,4877 7170,4912 7170,4957C7170,5067 7071,5102 7071,5204C7071,5243 7128,5361 6980,5392C6988,5442 7036,5512 7068,5512C7140,5512 7081,5686 7021,5736C6988,5775 6923,5821 6905,5776C6886,5793 6850,5776 6868,5742C6837,5742 6830,5698 6871,5691C6873,5644 6914,5642 6983,5667C7018,5497 6953,5620 6800,5452C6757,5486 6714,5480 6660,5480C6660,5527 6725,5541 6725,5570C6725,5640 6574,5653 6485,5677C6457,5707 6413,5747 6400,5695C6368,5706 6339,5673 6361,5649C6335,5631 6337,5599 6375,5592C6379,5546 6423,5557 6480,5590C6518,5590 6555,5586 6580,5550C6547,5500 6500,5471 6500,5382C6500,5277 6651,5307 6763,5300C6702,5262 6634,5216 6624,5155L6505,5242C6440,5228 6373,5217 6320,5177C6264,5166 6201,5169 6219,5125C6199,5118 6190,5080 6222,5073C6208,5053 6224,5032 6254,5036Z" style="fill-rule:nonzero;"/>
                    <path id="a" d="M5520,4458C5477,4566 5352,4579 5245,4550C5045,4573 5157,4620 5240,4620C5385,4620 5542,4515 5660,4515C5746,4515 5803,4548 5803,4595C5803,4673 5625,4718 5625,4718C5625,4718 5688,4763 5750,4738C5808,4714 5840,4758 5830,4795C5815,4851 5816,4893 5828,4943C5796,4986 5783,4965 5765,4943C5747,4974 5708,4971 5703,4934C5671,4948 5624,4904 5720,4858L5698,4818L5415,4790C5618,4852 5514,4926 5415,4948L5255,4948C5199,5001 5161,4960 5173,4940C5137,4938 5115,4904 5165,4873C5145,4837 5200,4820 5255,4888C5349,4901 5480,4895 5313,4858C5243,4842 5238,4805 5278,4773C5181,4775 5137,4848 5018,4820C4954,4970 4762,4913 4628,4920C4589,4956 4533,4967 4533,4920C4494,4913 4497,4856 4535,4855C4531,4826 4561,4792 4623,4843C4670,4851 4717,4858 4778,4840C4703,4775 4635,4705 4585,4655C4504,4634 4501,4589 4530,4575C4504,4550 4534,4505 4570,4525C4588,4492 4641,4518 4650,4595C4681,4644 4740,4713 4815,4740C4857,4706 4767,4659 4804,4590C4791,4542 4776,4480 4845,4528C4875,4516 4906,4507 4955,4523C4994,4506 5020,4510 4988,4608C4997,4696 5056,4695 5118,4693C5291,4675 5412,4648 5580,4668C5830,4633 5772,4535 5610,4573C5545,4587 5309,4720 5128,4655C5049,4627 5066,4558 5130,4508C5185,4463 5410,4498 5520,4458Z" style="fill-rule:nonzero;"/>
                    <g id="a1" serif:id="a" transform="matrix(1,0,0,1,0,520)">
                        <path d="M5520,4458C5477,4566 5352,4579 5245,4550C5045,4573 5157,4620 5240,4620C5385,4620 5542,4515 5660,4515C5746,4515 5803,4548 5803,4595C5803,4673 5625,4718 5625,4718C5625,4718 5688,4763 5750,4738C5808,4714 5840,4758 5830,4795C5815,4851 5816,4893 5828,4943C5796,4986 5783,4965 5765,4943C5747,4974 5708,4971 5703,4934C5671,4948 5624,4904 5720,4858L5698,4818L5415,4790C5618,4852 5514,4926 5415,4948L5255,4948C5199,5001 5161,4960 5173,4940C5137,4938 5115,4904 5165,4873C5145,4837 5200,4820 5255,4888C5349,4901 5480,4895 5313,4858C5243,4842 5238,4805 5278,4773C5181,4775 5137,4848 5018,4820C4954,4970 4762,4913 4628,4920C4589,4956 4533,4967 4533,4920C4494,4913 4497,4856 4535,4855C4531,4826 4561,4792 4623,4843C4670,4851 4717,4858 4778,4840C4703,4775 4635,4705 4585,4655C4504,4634 4501,4589 4530,4575C4504,4550 4534,4505 4570,4525C4588,4492 4641,4518 4650,4595C4681,4644 4740,4713 4815,4740C4857,4706 4767,4659 4804,4590C4791,4542 4776,4480 4845,4528C4875,4516 4906,4507 4955,4523C4994,4506 5020,4510 4988,4608C4997,4696 5056,4695 5118,4693C5291,4675 5412,4648 5580,4668C5830,4633 5772,4535 5610,4573C5545,4587 5309,4720 5128,4655C5049,4627 5066,4558 5130,4508C5185,4463 5410,4498 5520,4458Z" style="fill-rule:nonzero;"/>
                    </g>
                    <g id="a2" serif:id="a" transform="matrix(1,0,0,1,0,1040)">
                        <path d="M5520,4458C5477,4566 5352,4579 5245,4550C5045,4573 5157,4620 5240,4620C5385,4620 5542,4515 5660,4515C5746,4515 5803,4548 5803,4595C5803,4673 5625,4718 5625,4718C5625,4718 5688,4763 5750,4738C5808,4714 5840,4758 5830,4795C5815,4851 5816,4893 5828,4943C5796,4986 5783,4965 5765,4943C5747,4974 5708,4971 5703,4934C5671,4948 5624,4904 5720,4858L5698,4818L5415,4790C5618,4852 5514,4926 5415,4948L5255,4948C5199,5001 5161,4960 5173,4940C5137,4938 5115,4904 5165,4873C5145,4837 5200,4820 5255,4888C5349,4901 5480,4895 5313,4858C5243,4842 5238,4805 5278,4773C5181,4775 5137,4848 5018,4820C4954,4970 4762,4913 4628,4920C4589,4956 4533,4967 4533,4920C4494,4913 4497,4856 4535,4855C4531,4826 4561,4792 4623,4843C4670,4851 4717,4858 4778,4840C4703,4775 4635,4705 4585,4655C4504,4634 4501,4589 4530,4575C4504,4550 4534,4505 4570,4525C4588,4492 4641,4518 4650,4595C4681,4644 4740,4713 4815,4740C4857,4706 4767,4659 4804,4590C4791,4542 4776,4480 4845,4528C4875,4516 4906,4507 4955,4523C4994,4506 5020,4510 4988,4608C4997,4696 5056,4695 5118,4693C5291,4675 5412,4648 5580,4668C5830,4633 5772,4535 5610,4573C5545,4587 5309,4720 5128,4655C5049,4627 5066,4558 5130,4508C5185,4463 5410,4498 5520,4458Z" style="fill-rule:nonzero;"/>
                    </g>
                    <g id="a3" serif:id="a" transform="matrix(1,0,0,1,1500,1635)">
                        <path d="M5520,4458C5477,4566 5352,4579 5245,4550C5045,4573 5157,4620 5240,4620C5385,4620 5542,4515 5660,4515C5746,4515 5803,4548 5803,4595C5803,4673 5625,4718 5625,4718C5625,4718 5688,4763 5750,4738C5808,4714 5840,4758 5830,4795C5815,4851 5816,4893 5828,4943C5796,4986 5783,4965 5765,4943C5747,4974 5708,4971 5703,4934C5671,4948 5624,4904 5720,4858L5698,4818L5415,4790C5618,4852 5514,4926 5415,4948L5255,4948C5199,5001 5161,4960 5173,4940C5137,4938 5115,4904 5165,4873C5145,4837 5200,4820 5255,4888C5349,4901 5480,4895 5313,4858C5243,4842 5238,4805 5278,4773C5181,4775 5137,4848 5018,4820C4954,4970 4762,4913 4628,4920C4589,4956 4533,4967 4533,4920C4494,4913 4497,4856 4535,4855C4531,4826 4561,4792 4623,4843C4670,4851 4717,4858 4778,4840C4703,4775 4635,4705 4585,4655C4504,4634 4501,4589 4530,4575C4504,4550 4534,4505 4570,4525C4588,4492 4641,4518 4650,4595C4681,4644 4740,4713 4815,4740C4857,4706 4767,4659 4804,4590C4791,4542 4776,4480 4845,4528C4875,4516 4906,4507 4955,4523C4994,4506 5020,4510 4988,4608C4997,4696 5056,4695 5118,4693C5291,4675 5412,4648 5580,4668C5830,4633 5772,4535 5610,4573C5545,4587 5309,4720 5128,4655C5049,4627 5066,4558 5130,4508C5185,4463 5410,4498 5520,4458Z" style="fill-rule:nonzero;"/>
                    </g>
                    <g id="a4" serif:id="a" transform="matrix(0.959,0,0,1,1687,2150)">
                        <path d="M5520,4458C5477,4566 5352,4579 5245,4550C5045,4573 5157,4620 5240,4620C5385,4620 5542,4515 5660,4515C5746,4515 5803,4548 5803,4595C5803,4673 5625,4718 5625,4718C5625,4718 5688,4763 5750,4738C5808,4714 5840,4758 5830,4795C5815,4851 5816,4893 5828,4943C5796,4986 5783,4965 5765,4943C5747,4974 5708,4971 5703,4934C5671,4948 5624,4904 5720,4858L5698,4818L5415,4790C5618,4852 5514,4926 5415,4948L5255,4948C5199,5001 5161,4960 5173,4940C5137,4938 5115,4904 5165,4873C5145,4837 5200,4820 5255,4888C5349,4901 5480,4895 5313,4858C5243,4842 5238,4805 5278,4773C5181,4775 5137,4848 5018,4820C4954,4970 4762,4913 4628,4920C4589,4956 4533,4967 4533,4920C4494,4913 4497,4856 4535,4855C4531,4826 4561,4792 4623,4843C4670,4851 4717,4858 4778,4840C4703,4775 4635,4705 4585,4655C4504,4634 4501,4589 4530,4575C4504,4550 4534,4505 4570,4525C4588,4492 4641,4518 4650,4595C4681,4644 4740,4713 4815,4740C4857,4706 4767,4659 4804,4590C4791,4542 4776,4480 4845,4528C4875,4516 4906,4507 4955,4523C4994,4506 5020,4510 4988,4608C4997,4696 5056,4695 5118,4693C5291,4675 5412,4648 5580,4668C5830,4633 5772,4535 5610,4573C5545,4587 5309,4720 5128,4655C5049,4627 5066,4558 5130,4508C5185,4463 5410,4498 5520,4458Z" style="fill-rule:nonzero;"/>
                    </g>
                    <path d="M6864,7123C6827,7231 6716,7244 6621,7215C6508,7241 6581,7285 6655,7285C6783,7285 6866,7180 6970,7180C7046,7180 7131,7220 7131,7268C7131,7345 7002,7383 7002,7383C7048,7413 7033,7440 7002,7458C6957,7483 6902,7501 6871,7543C6850,7560 6810,7570 6803,7538C6781,7554 6752,7511 6773,7493C6750,7473 6790,7438 6848,7473C6876,7461 6916,7454 6908,7428C6903,7407 6818,7422 6779,7435C6664,7474 6765,7550 6721,7573L6605,7633C6556,7686 6522,7645 6532,7625C6501,7623 6482,7589 6526,7558C6508,7522 6557,7505 6605,7573C6709,7496 6593,7523 6663,7450C6595,7492 6506,7508 6458,7485C6402,7635 6248,7648 6134,7681C6102,7724 6052,7737 6052,7690C6018,7683 6020,7622 6054,7621C6049,7587 6075,7551 6129,7598C6169,7600 6256,7560 6304,7522C6157,7506 6121,7370 6077,7320C6005,7299 6002,7254 6028,7240C6005,7215 6031,7170 6063,7190C6079,7157 6126,7183 6134,7260C6161,7309 6214,7378 6280,7405C6316,7359 6218,7318 6260,7255C6257,7204 6245,7145 6306,7193C6332,7181 6360,7172 6403,7188C6437,7171 6460,7175 6432,7273C6440,7361 6492,7360 6546,7358C6700,7340 6814,7313 6962,7333C7183,7298 7069,7200 6926,7238C6868,7252 6715,7385 6555,7320C6486,7292 6501,7223 6557,7173C6606,7128 6767,7163 6864,7123Z" style="fill-rule:nonzero;"/>
                </g>
                <g transform="matrix(0.0246374,0,0,0.0246374,-91.4515,-78.344)">
                    <path d="M3337,6135C3337,7556 4544,8965 6795,8795C7060,8681 7671,8332 7803,8130C5012,8315 4167,7078 4167,6135" style="fill:white;fill-rule:nonzero;stroke:black;stroke-width:160px;stroke-linejoin:round;"/>
                </g>
                <g transform="matrix(0.0246374,0,0,0.0246374,-91.4515,-78.344)">
                    <path d="M6467,8393C6458.67,8395.73 6449.95,8397.12 6441.18,8397.12C6405.03,8397.12 6372.84,8373.49 6362,8339C6348.37,8295.67 6372.71,8248.78 6416,8235C6459.05,8221.28 6505.8,8245.1 6520,8288C6522.79,8296.42 6524.21,8305.24 6524.21,8314.11C6524.21,8349.92 6501.04,8381.87 6467,8393ZM6494,8432C6483.6,8417.78 6477.99,8400.61 6477.99,8383C6477.99,8356.54 6490.64,8331.62 6512,8316C6526.22,8305.6 6543.39,8299.99 6561,8299.99C6587.46,8299.99 6612.38,8312.64 6628,8334C6638.4,8348.22 6644.01,8365.39 6644.01,8383C6644.01,8409.46 6631.36,8434.38 6610,8450C6595.78,8460.4 6578.61,8466.01 6561,8466.01C6534.54,8466.01 6509.62,8453.36 6494,8432ZM6464,8470C6479.57,8448.26 6504.73,8435.34 6531.47,8435.34C6548.89,8435.34 6565.87,8440.82 6580,8451C6601.74,8466.57 6614.66,8491.73 6614.66,8518.47C6614.66,8535.89 6609.18,8552.87 6599,8567C6583.43,8588.74 6558.27,8601.66 6531.53,8601.66C6514.11,8601.66 6497.13,8596.18 6483,8586C6461.26,8570.43 6448.34,8545.27 6448.34,8518.53C6448.34,8501.11 6453.82,8484.13 6464,8470ZM6419,8453C6453.49,8463.84 6477.12,8496.03 6477.12,8532.18C6477.12,8540.95 6475.73,8549.67 6473,8558C6461.87,8592.04 6429.92,8615.21 6394.11,8615.21C6385.24,8615.21 6376.42,8613.79 6368,8611C6325.1,8596.8 6301.28,8550.05 6315,8507C6328.78,8463.71 6375.67,8439.37 6419,8453ZM6421,8406C6421,8451.53 6383.53,8489 6338,8489C6292.47,8489 6255,8451.53 6255,8406C6255,8360.47 6292.47,8323 6338,8323C6383.53,8323 6421,8360.47 6421,8406Z" style="fill:white;fill-rule:nonzero;stroke:black;stroke-width:50px;"/>
                </g>
                <g transform="matrix(0.0246374,0,0,0.0246374,-91.4515,-78.344)">
                    <circle cx="6454" cy="8429" r="107"/>
                </g>
                <g transform="matrix(0.0246374,0,0,0.0246374,-91.4515,-78.344)">
                    <path d="M5420,8256C5465.53,8256 5503,8293.47 5503,8339C5503,8384.53 5465.53,8422 5420,8422C5374.47,8422 5337,8384.53 5337,8339C5337,8293.47 5374.47,8256 5420,8256ZM5467,8258C5478.13,8223.96 5510.08,8200.79 5545.89,8200.79C5554.76,8200.79 5563.58,8202.21 5572,8205C5614.9,8219.2 5638.72,8265.95 5625,8309C5611.22,8352.29 5564.33,8376.63 5521,8363C5486.51,8352.16 5462.88,8319.97 5462.88,8283.82C5462.88,8275.05 5464.27,8266.33 5467,8258ZM5484,8213C5462.26,8197.43 5449.34,8172.27 5449.34,8145.53C5449.34,8128.11 5454.82,8111.13 5465,8097C5480.62,8075.64 5505.54,8062.99 5532,8062.99C5549.61,8062.99 5566.78,8068.6 5581,8079C5602.74,8094.57 5615.66,8119.73 5615.66,8146.47C5615.66,8163.89 5610.18,8180.87 5600,8195C5584.38,8216.36 5559.46,8229.01 5533,8229.01C5515.39,8229.01 5498.22,8223.4 5484,8213Z" style="fill:white;fill-rule:nonzero;stroke:black;stroke-width:50px;"/>
                </g>
                <g transform="matrix(0.0246374,0,0,0.0246374,-91.4515,-78.344)">
                    <path d="M5693,7920C5620,7903 5458,8238 5458,8238C5458,8238 5278,8605 5440,8755C4953,8728 5088,8438 5210,8138C5393,7745 5505,7790 5693,7920Z" style="fill-rule:nonzero;"/>
                </g>
                <g transform="matrix(0.0246374,0,0,0.0246374,-91.4515,-78.344)">
                    <path d="M5550,7890C5478,7873 5335,8193 5335,8193C5335,8193 5053,8663 5413,8750C4955,8730 5270,8173 5270,8173C5270,8173 5418,7788 5550,7890Z" style="fill:white;fill-rule:nonzero;"/>
                </g>
                <g transform="matrix(0.0246374,0,0,0.0246374,-91.4515,-78.344)">
                    <path d="M5175,8111C5184,8097 5381,8127 5425,8141C5468,8155 5510,8209 5496,8253C5482,8297 5419,8309 5376,8295C5298.45,8246.3 5230.35,8183.96 5175,8111Z" style="fill:white;fill-rule:nonzero;stroke:black;stroke-width:70px;"/>
                </g>
                <g transform="matrix(0.0246374,0,0,0.0246374,-91.4515,-78.344)">
                    <path d="M5045,8398L4808,8280C4911,8298 4923,8181 4965,8108L4775,7995C4729,8082 4632,8158 4723,8245L4458,8075C4560,8113 4628,7988 4688,7893C4743,7803 4823,7705 4763,7620L5010,7770C4879,7752 4863,7857 4813,7925L5003,8038C5041,7949 5115,7884 5050,7783L5288,7905C5163,7881 5137,8032 5085,8118C5032,8204 4993,8314 5045,8398Z" style="fill-rule:nonzero;"/>
                </g>
                <g transform="matrix(0.0246374,0,0,0.0246374,-91.4515,-78.344)">
                    <path d="M4391,7349C4231.36,7349 4100,7480.36 4100,7640C4100,7799.64 4231.36,7931 4391,7931C4550.64,7931 4682,7799.64 4682,7640C4682,7480.36 4550.64,7349 4391,7349ZM4439,7449C4480.9,7446.89 4517.57,7459.58 4543,7485C4603.68,7547.09 4583.42,7667.76 4498,7753C4412.76,7838.42 4292.09,7858.68 4230,7798C4229.98,7797.98 4229.95,7797.95 4229.93,7797.93C4168.25,7736.25 4188.04,7614.96 4273.77,7529.23C4273.85,7529.15 4273.92,7529.08 4274,7529C4321.65,7481.29 4382.48,7451.8 4439,7449Z" style="fill-rule:nonzero;"/>
                </g>
                <g transform="matrix(0.0246374,0,0,0.0246374,-91.4515,-78.344)">
                    <path d="M3598,6905L3728,7198C3721,7046 3876,7024 3995,6973L3830,7415L3960,7593C3906,7468 4017,7379 4123,7315C4207,7263 4280,7164 4418,7258L4258,7000C4288,7161 4134,7185 4043,7255L4190,6798C3993,6867 3759,7023 3598,6905ZM3488,6508L3575,6865C3578,6743 3722,6729 3825,6705C3931,6681 4059,6607 4133,6715L4048,6375C4031,6528 3908,6539 3788,6563C3684,6583 3556,6638 3488,6508ZM3823,6323C4003,6233 3993,6108 3898,6108C3829,6108 3760,6298 3620,6298C3391,6298 3472,5978 3488,5978L3648,5978C3465,6070 3558,6160 3620,6160C3705,6160 3730,5983 3880,5983C4049,5983 4070,6253 3990,6315L3823,6323Z" style="fill-rule:nonzero;"/>
                </g>
            </g>
            <g id="gear" transform="matrix(3.60668,0,0,3.60668,260.522,284.76)">
                <g id="Cog">
                    <g id="gear1" serif:id="gear">
                        <g>
                            <circle cx="0" cy="0" r="43" style="fill:none;stroke:black;stroke-width:9px;"/>
                            <g id="cogs">
                                <path id="cog" d="M46,3L51,0L46,-3L46,3Z" style="fill-rule:nonzero;stroke:black;stroke-width:3px;stroke-linejoin:round;"/>
                                <g id="cog1" serif:id="cog" transform="matrix(0.980785,0.19509,-0.19509,0.980785,0,0)">
                                    <path d="M46,3L51,0L46,-3L46,3Z" style="fill-rule:nonzero;stroke:black;stroke-width:3px;stroke-linejoin:round;"/>
                                </g>
                                <g id="cog2" serif:id="cog" transform="matrix(0.92388,0.382683,-0.382683,0.92388,0,0)">
                                    <path d="M46,3L51,0L46,-3L46,3Z" style="fill-rule:nonzero;stroke:black;stroke-width:3px;stroke-linejoin:round;"/>
                                </g>
                                <g id="cog3" serif:id="cog" transform="matrix(0.83147,0.55557,-0.55557,0.83147,0,0)">
                                    <path d="M46,3L51,0L46,-3L46,3Z" style="fill-rule:nonzero;stroke:black;stroke-width:3px;stroke-linejoin:round;"/>
                                </g>
                                <g id="cog4" serif:id="cog" transform="matrix(0.707107,0.707107,-0.707107,0.707107,0,0)">
                                    <path d="M46,3L51,0L46,-3L46,3Z" style="fill-rule:nonzero;stroke:black;stroke-width:3px;stroke-linejoin:round;"/>
                                </g>
                                <g id="cog5" serif:id="cog" transform="matrix(0.55557,0.83147,-0.83147,0.55557,0,0)">
                                    <path d="M46,3L51,0L46,-3L46,3Z" style="fill-rule:nonzero;stroke:black;stroke-width:3px;stroke-linejoin:round;"/>
                                </g>
                                <g id="cog6" serif:id="cog" transform="matrix(0.382683,0.92388,-0.92388,0.382683,0,0)">
                                    <path d="M46,3L51,0L46,-3L46,3Z" style="fill-rule:nonzero;stroke:black;stroke-width:3px;stroke-linejoin:round;"/>
                                </g>
                                <g id="cog7" serif:id="cog" transform="matrix(0.19509,0.980785,-0.980785,0.19509,0,0)">
                                    <path d="M46,3L51,0L46,-3L46,3Z" style="fill-rule:nonzero;stroke:black;stroke-width:3px;stroke-linejoin:round;"/>
                                </g>
                                <g id="cog8" serif:id="cog" transform="matrix(-3.82857e-16,1,-1,-3.82857e-16,0,0)">
                                    <path d="M46,3L51,0L46,-3L46,3Z" style="fill-rule:nonzero;stroke:black;stroke-width:3px;stroke-linejoin:round;"/>
                                </g>
                                <g id="cog9" serif:id="cog" transform="matrix(-0.19509,0.980785,-0.980785,-0.19509,0,0)">
                                    <path d="M46,3L51,0L46,-3L46,3Z" style="fill-rule:nonzero;stroke:black;stroke-width:3px;stroke-linejoin:round;"/>
                                </g>
                                <g id="cog10" serif:id="cog" transform="matrix(-0.382683,0.92388,-0.92388,-0.382683,0,0)">
                                    <path d="M46,3L51,0L46,-3L46,3Z" style="fill-rule:nonzero;stroke:black;stroke-width:3px;stroke-linejoin:round;"/>
                                </g>
                                <g id="cog11" serif:id="cog" transform="matrix(-0.55557,0.83147,-0.83147,-0.55557,0,0)">
                                    <path d="M46,3L51,0L46,-3L46,3Z" style="fill-rule:nonzero;stroke:black;stroke-width:3px;stroke-linejoin:round;"/>
                                </g>
                                <g id="cog12" serif:id="cog" transform="matrix(-0.707107,0.707107,-0.707107,-0.707107,0,0)">
                                    <path d="M46,3L51,0L46,-3L46,3Z" style="fill-rule:nonzero;stroke:black;stroke-width:3px;stroke-linejoin:round;"/>
                                </g>
                                <g id="cog13" serif:id="cog" transform="matrix(-0.83147,0.55557,-0.55557,-0.83147,0,0)">
                                    <path d="M46,3L51,0L46,-3L46,3Z" style="fill-rule:nonzero;stroke:black;stroke-width:3px;stroke-linejoin:round;"/>
                                </g>
                                <g id="cog14" serif:id="cog" transform="matrix(-0.92388,0.382683,-0.382683,-0.92388,0,0)">
                                    <path d="M46,3L51,0L46,-3L46,3Z" style="fill-rule:nonzero;stroke:black;stroke-width:3px;stroke-linejoin:round;"/>
                                </g>
                                <g id="cog15" serif:id="cog" transform="matrix(-0.980785,0.19509,-0.19509,-0.980785,0,0)">
                                    <path d="M46,3L51,0L46,-3L46,3Z" style="fill-rule:nonzero;stroke:black;stroke-width:3px;stroke-linejoin:round;"/>
                                </g>
                                <g id="cog16" serif:id="cog" transform="matrix(-1,-7.65714e-16,7.65714e-16,-1,0,0)">
                                    <path d="M46,3L51,0L46,-3L46,3Z" style="fill-rule:nonzero;stroke:black;stroke-width:3px;stroke-linejoin:round;"/>
                                </g>
                                <g id="cog17" serif:id="cog" transform="matrix(-0.980785,-0.19509,0.19509,-0.980785,0,0)">
                                    <path d="M46,3L51,0L46,-3L46,3Z" style="fill-rule:nonzero;stroke:black;stroke-width:3px;stroke-linejoin:round;"/>
                                </g>
                                <g id="cog18" serif:id="cog" transform="matrix(-0.92388,-0.382683,0.382683,-0.92388,0,0)">
                                    <path d="M46,3L51,0L46,-3L46,3Z" style="fill-rule:nonzero;stroke:black;stroke-width:3px;stroke-linejoin:round;"/>
                                </g>
                                <g id="cog19" serif:id="cog" transform="matrix(-0.83147,-0.55557,0.55557,-0.83147,0,0)">
                                    <path d="M46,3L51,0L46,-3L46,3Z" style="fill-rule:nonzero;stroke:black;stroke-width:3px;stroke-linejoin:round;"/>
                                </g>
                                <g id="cog20" serif:id="cog" transform="matrix(-0.707107,-0.707107,0.707107,-0.707107,0,0)">
                                    <path d="M46,3L51,0L46,-3L46,3Z" style="fill-rule:nonzero;stroke:black;stroke-width:3px;stroke-linejoin:round;"/>
                                </g>
                                <g id="cog21" serif:id="cog" transform="matrix(-0.55557,-0.83147,0.83147,-0.55557,0,0)">
                                    <path d="M46,3L51,0L46,-3L46,3Z" style="fill-rule:nonzero;stroke:black;stroke-width:3px;stroke-linejoin:round;"/>
                                </g>
                                <g id="cog22" serif:id="cog" transform="matrix(-0.382683,-0.92388,0.92388,-0.382683,0,0)">
                                    <path d="M46,3L51,0L46,-3L46,3Z" style="fill-rule:nonzero;stroke:black;stroke-width:3px;stroke-linejoin:round;"/>
                                </g>
                                <g id="cog23" serif:id="cog" transform="matrix(-0.19509,-0.980785,0.980785,-0.19509,0,0)">
                                    <path d="M46,3L51,0L46,-3L46,3Z" style="fill-rule:nonzero;stroke:black;stroke-width:3px;stroke-linejoin:round;"/>
                                </g>
                                <g id="cog24" serif:id="cog" transform="matrix(7.04481e-16,-1,1,7.04481e-16,0,0)">
                                    <path d="M46,3L51,0L46,-3L46,3Z" style="fill-rule:nonzero;stroke:black;stroke-width:3px;stroke-linejoin:round;"/>
                                </g>
                                <g id="cog25" serif:id="cog" transform="matrix(0.19509,-0.980785,0.980785,0.19509,0,0)">
                                    <path d="M46,3L51,0L46,-3L46,3Z" style="fill-rule:nonzero;stroke:black;stroke-width:3px;stroke-linejoin:round;"/>
                                </g>
                                <g id="cog26" serif:id="cog" transform="matrix(0.382683,-0.92388,0.92388,0.382683,0,0)">
                                    <path d="M46,3L51,0L46,-3L46,3Z" style="fill-rule:nonzero;stroke:black;stroke-width:3px;stroke-linejoin:round;"/>
                                </g>
                                <g id="cog27" serif:id="cog" transform="matrix(0.55557,-0.83147,0.83147,0.55557,0,0)">
                                    <path d="M46,3L51,0L46,-3L46,3Z" style="fill-rule:nonzero;stroke:black;stroke-width:3px;stroke-linejoin:round;"/>
                                </g>
                                <g id="cog28" serif:id="cog" transform="matrix(0.707107,-0.707107,0.707107,0.707107,0,0)">
                                    <path d="M46,3L51,0L46,-3L46,3Z" style="fill-rule:nonzero;stroke:black;stroke-width:3px;stroke-linejoin:round;"/>
                                </g>
                                <g id="cog29" serif:id="cog" transform="matrix(0.83147,-0.55557,0.55557,0.83147,0,0)">
                                    <path d="M46,3L51,0L46,-3L46,3Z" style="fill-rule:nonzero;stroke:black;stroke-width:3px;stroke-linejoin:round;"/>
                                </g>
                                <g id="cog30" serif:id="cog" transform="matrix(0.92388,-0.382683,0.382683,0.92388,0,0)">
                                    <path d="M46,3L51,0L46,-3L46,3Z" style="fill-rule:nonzero;stroke:black;stroke-width:3px;stroke-linejoin:round;"/>
                                </g>
                                <g id="cog31" serif:id="cog" transform="matrix(0.980785,-0.19509,0.19509,0.980785,0,0)">
                                    <path d="M46,3L51,0L46,-3L46,3Z" style="fill-rule:nonzero;stroke:black;stroke-width:3px;stroke-linejoin:round;"/>
                                </g>
                            </g>
                            <g id="mounts">
                                <path id="mount" d="M-7,-42L0,-35L7,-42L-7,-42Z" style="fill-rule:nonzero;stroke:black;stroke-width:6px;stroke-linejoin:round;"/>
                                <g id="mount1" serif:id="mount" transform="matrix(0.309017,0.951057,-0.951057,0.309017,0,0)">
                                    <path d="M-7,-42L0,-35L7,-42L-7,-42Z" style="fill-rule:nonzero;stroke:black;stroke-width:6px;stroke-linejoin:round;"/>
                                </g>
                                <g id="mount2" serif:id="mount" transform="matrix(-0.809017,0.587785,-0.587785,-0.809017,0,0)">
                                    <path d="M-7,-42L0,-35L7,-42L-7,-42Z" style="fill-rule:nonzero;stroke:black;stroke-width:6px;stroke-linejoin:round;"/>
                                </g>
                                <g id="mount3" serif:id="mount" transform="matrix(-0.809017,-0.587785,0.587785,-0.809017,0,0)">
                                    <path d="M-7,-42L0,-35L7,-42L-7,-42Z" style="fill-rule:nonzero;stroke:black;stroke-width:6px;stroke-linejoin:round;"/>
                                </g>
                                <g id="mount4" serif:id="mount" transform="matrix(0.309017,-0.951057,0.951057,0.309017,0,0)">
                                    <path d="M-7,-42L0,-35L7,-42L-7,-42Z" style="fill-rule:nonzero;stroke:black;stroke-width:6px;stroke-linejoin:round;"/>
                                </g>
                            </g>
                        </g>
                    </g>
                </g>
            </g>
        </g>
    </g>
    <g transform="matrix(1.77951,0,0,1.77951,236.396,204.997)">
        <g transform="matrix(0.0246374,0,0,0.0246374,-91.4515,-78.344)">
            <path d="M9160,6130C8413,6483 8391,7152 8790,7700C9142,8183 8063,8808 7635,9275L7860,9300L7735,9440C8412,9463 8998,9247 9095,8755C9197,8235 9425,8222 9470,7820C9206,7532 9274,7399 9750,7450L9160,6130Z" style="fill-rule:nonzero;"/>
        </g>
        <g transform="matrix(0.0246374,0,0,0.0246374,-91.4515,-78.344)">
            <path d="M8330,8955L8013,9308L8425,9230C8510,9168 8556,9095 8595,9020C8507,9009 8418,9004 8330,8955ZM8270,8925L8040,9175L7893,9183L8270,8925ZM9295,6265C8291,6611 8744,7372 8895,7585C9157,7952 8821,8502 8360,8820C8380,8983 8489,8938 8570,8960C8568,8872 8587,8785 8690,8730C8727,8864 8687,8983 8660,9105C8744,9058 8778,8924 8810,8785C8847,8864 8818,8959 8805,9050C8885,8898 8972,8750 8975,8560C9100,8220 9345,8020 9345,7900C9345,7808 9090,7488 9210,7315C9243,7268 9413,7360 9655,7280L9295,6265Z" style="fill:white;fill-rule:nonzero;"/>
        </g>
        <g transform="matrix(0.0246374,0,0,0.0246374,-91.4515,-78.344)">
            <path d="M8910,7290C8716,7081 8813,6556 9158,6485C8914,6681 8846,6967 8910,7290ZM9128,8103C9285,7745 8994,7550 9085,7285C9145,7111 9183,7128 9553,7110L9588,7215C9376,7272 9120,7148 9120,7378C9120,7709 9359,7835 9290,7918C9239,7979 9128,8103 9128,8103Z" style="fill-rule:nonzero;"/>
        </g>
        <g transform="matrix(0.0246374,0,0,0.0246374,-91.4515,-78.344)">
            <path d="M8900,1795C8900,1795 7991,110 8043,83C8086,60 9280,1565 9280,1565L9495,1630C9589,1469 9644,1449 9700,1683L9760,1708C9885,1705 9956,1648 10035,1560C10081,1525 10110,1555 10130,1620C10110,1685 10107,1760 10113,1823C10248,1852 10382,1888 10498,2003L10358,2030C10525,2035 10684,2112 10838,2238L10570,2230L10920,2353L10765,2400C10919,2452 11167,2503 11090,2690C11009,2578 10919,2559 10825,2600C10967.8,2635.23 11089.5,2728.91 11160,2858C11053,2803 10945,2775 10838,2833C10957,2912 11144,2884 11175,3120C11094,3056 11016,2978 10923,3018C11050,3129 11262,3178 11100,3503C11075,3372 11052,3240 10890,3253C10976,3349 11134,3545 10955,3763C10975,3603 10972,3458 10763,3450C10947,3526 10966,3664 10850,3853L10803,3750C10809,3819 10817,3888 10785,3950L10733,3873C10731,3939 10719,4005 10665,4065L10630,3970C10562.6,4083.65 10451.7,4164.98 10323,4195C10376,4144 10443,4083 10395,4025L10228,3825C10044,4569 10099,5308 10475,6025C10880,6184 10843,6960 11175,6960C11320,6960 11430,6869 11430,6695C11430,6304 10812,6137 10755,5425C10607,5270 10440,5097 10440,4895C10440,4720 10548,4562 10353,4388C10427,4361 10514,4366 10575,4445C10615,4283 10567,4249 10438,4293C10500,4136 10643,4092 10785,4108C10828,3991 10921,3878 11085,3950C11211,3890 11351,3885 11443,4103C11245,4032 11196,4119 11260,4293C11355,4206 11461,4188 11570,4275C11468,4265 11390,4313 11365,4405C11405,4502 11467,4589 11463,4698C11447,5125 10855,5243 11080,5680C11093,5408 11378,5368 11325,5050C11667,5303 11286,5476 11325,5725C11379,5620 11467,5531 11468,5390C11713,5577 11424,5741 11465,5950L11565,5655C11758,5833 11483,5998 11580,6155L11655,5875C11813,6088 11638,6423 11638,6423C11980,7104 11135,7601 10775,7125C10777,7385 10652,7681 10950,7855C11318,7833 11065,8238 11065,8615C11065,8874 11265,9319 10975,9570L10940,9470C10696,9890 10184,9972 9891,9913L9966,9790L9745,9750C10135,9315 10602,8984 10600,8535C10598,8012 9782,7729 9535,7245C9369,6919 9592,6798 9120,6270C8846.14,5969.65 8626.23,5624.23 8470,5249C8132,5258 7696,5189 7787,5713C7900,5946 8005,6192 7905,6368L7842,6283C7893,6418 7910,6886 7452,7095C7359.75,6935.58 7342.53,6743.27 7405,6570C7351.78,6439.83 7342.99,6295.67 7380,6160C7387,5209 7332,4973 7709,4883C7966,4822 8014,4749 8337,4650C8320,4270 8446,3880 8825,3530C8644,3574 8562,3577 8460,3760C8431,3617 8360,3524 8630,3340C8518,3413 8388,3518 8288,3498C8179,3476 8135,3391 8186,3264C8064,3143 8153,3003 8231,2905C8278,2730 8354,2670 8466,2631C8548,2545 8658,2446 8690,2340C8523,2334 8365,2313 8293,2547C8258,2393 8264,2214 8545,2180C8443,2160 8348,2162 8293,2280C8286,2191 8297,2086 8420,2010C8339,2022 8268,2099 8200,2190C8207,1980 8298,1848 8494,1863C8575,1777 8699,1750 8900,1795Z" style="fill-rule:nonzero;"/>
        </g>
        <g transform="matrix(0.0246374,0,0,0.0246374,-91.4515,-78.344)">
            <path d="M8193,311C8193,311 8388,699 8430,670C8476,637 8193,311 8193,311ZM8480,705C8454,699 8434,764 8463,775C8493,786 8510,712 8480,705ZM8538,793C8512,787 8492,853 8521,863C8551,874 8568,801 8538,793ZM8597,882C8570,875 8548,954 8577,964C8607,975 8627,889 8597,882ZM8655,970C8629,964 8601,1049 8630,1060C8660,1071 8685,977 8655,970ZM8718,1040C8693,1027 8660,1144 8688,1158C8722,1175 8756,1060 8718,1040ZM8788,1138C8752,1124 8719,1283 8755,1300C8799,1321 8832,1154 8788,1138ZM8883,1230C8847,1217 8809,1433 8845,1450C8889,1471 8927,1247 8883,1230ZM8988,1368C8952,1354 8891,1618 8928,1635C8971,1656 9032,1384 8988,1368ZM9090,1508C9054,1494 8989,1785 9025,1803C9069,1823 9134,1524 9090,1508ZM9150,1795L9225,1765C9225,1765 9250,1641 9208,1638C9160,1634 9150,1795 9150,1795ZM9565,1650C9592,1612 9618,1568 9645,1673L9565,1650ZM10381,3400C10409,3371 10440,3476 10521,3553C10597,3624 10708,3686 10700,3778C10654,3696 10547,3668 10502,3610C10433,3521 10353,3429 10381,3400ZM10321,3540C10351,3513 10393,3606 10469,3687C10540,3764 10647,3832 10633,3924C10593,3839 10494,3799 10447,3744C10354,3635 10291,3566 10321,3540ZM10268,3681C10304,3646 10530,3904 10513,3986C10431,3861 10222,3723 10268,3681ZM10383,3220C10431,3158 10553,3356 10626,3450C10696,3540 10859,3562 10815,3681C10803,3592 10639,3586 10597,3504C10504,3322 10356,3255 10383,3220ZM10413,2723C10423,2662 10622,2763 10659,2791C10728,2843 10771,2929 10869,2961C10774,3042 10653,2841 10586,2806C10473,2747 10406,2766 10413,2723ZM10358,2533C10368,2472 10588,2566 10629,2589C10723,2641 10756,2696 10821,2724C10714,2745 10638,2629 10566,2606C10401,2552 10351,2576 10358,2533ZM10435,2902C10461,2823 10800,3181 10926,3142C10847,3226 10733,3109 10611,3028C10516,2965 10419,2952 10435,2902ZM10416,3057C10424,3008 10558,3073 10649,3200C10710,3285 10787,3370 10913,3431C10793.9,3420.11 10685.4,3357.11 10617,3259C10522,3108 10409,3101 10416,3057ZM10283,2418C10263,2372 10406,2358 10554,2394C10659,2418 10734,2504 10861,2524C10689,2535 10615,2452 10544,2441C10372,2414 10301,2458 10283,2418ZM10183,2265C10149,2188 10548,2218 10681,2339C10335,2206 10208,2322 10183,2265ZM10101,2164C10074,2084 10408,2072 10498,2133C10249,2090 10117,2209 10101,2164ZM10000,2088C9950,2019 10176,1941 10280,1973C10103,1991 10028,2126 10000,2088ZM9760,2158C9960,2048 10041,1938 10020,1715C9955,1906 9881,2038 9760,2158ZM8603,3165C8457,3275 8440,3448 8325,3414C8253,3392 8287,3303 8336,3312C8362,3317 8353,3394 8425,3299C8463,3249 8524,3205 8602,3165L8603,3165ZM8475,1948C8564,1935 8609,2014 8762,2014C9028,2014 9174,1749 9598,1830L9585,1925C9507,1930 9441,2003 9410,2078C9393,2014 9443,1909 9553,1875C9402,1880 9273,1988 9158,2083C9194,2012 9239,1943 9328,1880C9055,1943 8750,2235 8475,1948ZM9368,1688L9413,1750C9488,1737 9556,1770 9625,1795C9563,1697 9461,1704 9368,1688ZM8945,1860C8888,1913 8790,1932 8720,1851C8780,1884 8915,1818 8945,1860ZM10925,5395C10938,5992 11625,6227 11625,6730C11625,6995 11403,7195 11160,7195C10735,7195 10705,6530 10480,6475C10885,7275 10315,7610 10820,7945C11264,7973 10720,8522 11045,8975L10890,8835C10982,8992 11057,9152 11005,9335L10855,9040L10845,9405L10765,9055C10696,9145 10646,9237 10670,9340C10577,9357 10473,9379 10380,9305C10585,9120 10752,8906 10752,8520C10752,8194 10699,8153 10390,7890C9917,7487 9113,6987 9880,6245C10272,5866 9723,5435 9770,4690C9480,5380 10196,5841 9785,6250C9623,6411 9501,6435 9318,6220C9098,5962 8783,5585 8710,5240C8932,5209 9156,5181 9366,5111C9486,4951 9756,4699 9685,4350C9456,5297 8726,4995 7818,5155C7779,5238 7725,5302 7660,5353C7688,5539 7615,5762 7785,5913L7635,5825C7719,5947 7852,6037 7870,6200C7793,6100 7718,5994 7615,5965C7721,6142 7800,6215 7765,6403C7716,6236 7629,6163 7565,6030C7494,6231 7825,6331 7490,6475C7459,6378 7472,6280 7494,6183L7505,5290C7519,5110 7621,5023 7775,4990L9040,4570C8925.86,4523.64 8800.24,4513.17 8680,4540C8685,4176 8994,4139 9370,4105C9010,4052 8572,4025 8538,4583L8448,4613C8435,3844 9326,3876 9745,3920L9275,3837C9350,3022 10170,3151 9835,2495C9938,3165 9280,2945 9180,3830C8976,3826 8750,3863 8602,3991C8775,3687 9065,3411 9345,3140C9718,3021 10006,2545 9595,2345C9801,2601 9640,2865 9320,2900C9139,2920 9148,3120 9103,3250C9083,3158 9083,3039 9130,2940C8948,3054 9074,3338 8890,3430C8990,3315 8923,3138 9035,2995C8880,3089 8908,3294 8815,3392C8723,3489 8598,3460 8530,3550C8570,3405 8704,3486 8793,3323C8836,3243 8816,3128 8978,2980L8695,3165C8985,2933 8805,2845 8383,3168C8280,3133 8258,3073 8363,2960C8377,2864 8421,2786 8525,2755C8790,2595 8833,2348 9035,2195L9118,2315C9148,2240 9147,2140 9278,2140C9297,2245 9355,2312 9455,2338C9373,2198 9437,2145 9513,2098L9458,2220C9781,2162 9560,1847 9921,1770C9722,1942 9674,2124 9558,2308C9672,2305 9902,2050 10135,2405C10852,3348 9325,3917 10360,6075C10016,6022 9931,6224 9900,6400C10096,6181 10343,6049 10615,6400C10813,6656 10889,7075 11180,7075C11366,7075 11540,6949 11540,6685C11540,6315 10900,6080 10850,5395C10467,4834 10901,4457 10805,4195C10975,4380 10618,4873 10830,5265C10777,5017 10855,4808 10943,4575C11009,4397 10842,4131 11030,4048C10923,4238 11084,4438 10980,4690C10907,4869 10837,5039 10880,5218C11339,4336 10856,4297 11140,4075C10956,4356 11410,4368 10940,5205C11092,5016 11310,4888 11275,4525C11438,4956 10927,5130 10925,5395ZM10645,4213C10932,4236 10473,4829 10703,5275C10338,4774 10871,4413 10645,4213ZM10383,9418L10150,9768C10340,9722 10602,9687 10685,9430C10588,9459 10479,9441 10383,9418ZM10333,9408L10113,9660L10025,9658L10283,9388L10333,9408ZM7520,6578C7458.83,6688.42 7456.2,6822.27 7513,6935C7712,6821 7730,6670 7740,6518C7667,6466 7593,6534 7520,6578Z" style="fill:white;fill-rule:nonzero;"/>
        </g>
        <g transform="matrix(0.0246374,0,0,0.0246374,-91.4515,-78.344)">
            <path d="M9298,2278C9119,2233 8968,2282 8910,2530C8859,2574 8824,2664 8824,2664C8824,2664 8933,2676 8978,2640C9121,2659 9226,2596 9296,2449C9349,2421 9363,2346 9363,2346C9363,2346 9284,2339 9243,2375C9173,2359 9108,2372 9045,2410C9083,2319 9192,2297 9298,2278ZM9226,2439C9216,2486 9182,2523 9139,2554C9138,2510 9125,2477 9076,2451C9122,2430 9177,2420 9226,2439ZM8493,3033L8518,2938L8403,2988C8485,2620 8843,2893 8493,3033ZM10890,8545C10918,7853 10391,7972 10450,7645C10535,7170 10455,6844 10230,6465C10487,6508 10560,6869 10560,7075C10560,7544 10354,7790 10862,7983C10979,8026 10980,8188 10890,8545Z" style="fill-rule:nonzero;"/>
        </g>
        <g transform="matrix(0.0246374,0,0,0.0246374,-91.4515,-78.344)">
            <path d="M10153,5063L10340,5278C10459,5284 10593,5452 10538,5675L10578,5898C10665,6043 10615,6325 10475,6375L10388,6593C10423,6817 10335,6961 10177,7039C10196,7091 10149,7245 10112,7268C10152,7449 10034,7603 9900,7670L9853,7833C9921,8072 9792,8314 9660,8343L9605,8453C9780,8713 9545,9093 9205,8918C8862,8740 9080,8255 9415,8340L9450,8250C9408,8073 9476,7852 9633,7763L9670,7610C9627,7445 9729,7189 9898,7140L9945,6940C9926,6732 10001,6578 10178,6478L10235,6343C10204,6202 10208,6012 10298,5885L10275,5733C10183,5655 10118,5453 10210,5343L10153,5063Z" style="fill-rule:nonzero;"/>
        </g>
        <g transform="matrix(0.0246374,0,0,0.0246374,-91.4515,-78.344)">
            <path d="M10290,5438L10242,5417C10194,5469 10248,5615 10329,5681L10346,5628C10298,5577 10272,5506 10290,5438ZM10438,5601L10476,5623C10521,5572 10486,5420 10398,5364L10372,5409C10426,5454 10448,5531 10438,5601ZM10392,5970L10363,5926C10295,5945 10260,6175 10293,6274L10336,6239C10322,6170 10340,6018 10392,5970ZM10445,6266L10465,6305C10531,6286 10584,6061 10540,5966L10494,5991C10515,6057 10491,6213 10445,6266ZM10183,6608L10163,6559C10092,6564 9991,6809 10004,6913L10053,6886C10053,6816 10123,6644 10183,6608ZM10136,6932L10161,6964C10229,6958 10353,6739 10328,6638L10278,6653C10286,6722 10191,6889 10136,6932ZM9901,7265L9881,7216C9810,7222 9721,7436 9734,7540L9783,7514C9783,7444 9841,7302 9901,7265ZM9875,7555L9887,7597C9956,7592 10070,7397 10045,7295L9995,7310C10003,7380 9930,7511 9875,7555ZM9643,7910L9623,7861C9552,7867 9483,8079 9496,8183L9548,8174C9548,8104 9583,7947 9643,7910ZM9662,8212L9675,8255C9743,8249 9828,8017 9802,7915L9752,7930C9761,8000 9718,8169 9662,8212ZM10175,5157L10308,5339C10326,5365 10292,5398 10270,5368L10194,5265L10175,5157ZM10375,5654C10369,5620 10416,5617 10422,5644L10478,5920C10484,5951 10439,5967 10431,5930L10375,5654ZM10400,6304C10406,6269 10361,6260 10356,6287C10340,6375 10290,6468 10252,6547C10238,6575 10280,6597 10297,6563C10335,6486 10385,6394 10400,6304ZM10038,6969C10055,6939 10097,6959 10084,6984C10042,7063 10023,7148 10004,7233C9997,7264 9951,7256 9959,7219C9976,7134 9995,7050 10038,6969ZM9783,7579C9793,7545 9836,7566 9828,7592L9742,7871C9733,7901 9686,7894 9697,7858L9783,7579ZM9563,8223C9578,8192 9618,8217 9606,8243L9482,8507C9469,8536 9423,8522 9439,8487L9563,8223ZM9217,8824C9434,8964 9642,8736 9566,8545L9492,8576C9540,8739 9368,8844 9263,8759C9132,8653 9231,8477 9365,8485L9372,8405C9116,8417 9042,8712 9217,8824Z" style="fill:white;fill-rule:nonzero;"/>
        </g>
        <g transform="matrix(0.0246374,0,0,0.0246374,-91.4515,-78.344)">
            <path d="M10060,4488L10192,4276L10261,4239L10266,4159L10420,3913L10198,3690L10131,3778L10063,3746C10055,3680 10068,3599 10010,3533C9932,3543 9885,3598 9840,3655L9720,3598L9790,3495L9325,3383L9285,3523L9180,3505C9176,3432 9159,3352 9090,3305C9022,3325 8977,3372 8945,3445L8545,3540L8640,4000C9272,4006 9799,4085 10060,4488Z" style="fill-rule:nonzero;"/>
        </g>
        <g transform="matrix(0.0246374,0,0,0.0246374,-91.4515,-78.344)">
            <path d="M9869,4067C9846,4119 9744,4071 9763,4031C9787,3979 9888,4027 9869,4067ZM9069,3844C9056,3900 8947,3871 8958,3828C8972,3773 9080,3801 9069,3844ZM10216,3824C10269,3964 10193,4072 10169,3910L10079,3992C10124,4004 10203,4027 10173,4064C10126,4121 10059,4135 10001,4103C9942,4070 9856,4002 9891,3927C9921,3865 9993,3852 10056,3939C10105,3834 10028,3822 9950,3811C9984,3768 9991,3712 9964,3642C9914,3679 9881,3725 9877,3788C9847,3740 9768,3690 9708,3825C9723,3779 9869,3811 9834,3907C9812,3967 9725,3983 9640,3958C9464,3898 9447,3618 9627,3824L9670,3658C9525,3703 9484,3615 9642,3546L9403,3497C9507,3634 9429,3691 9325,3581L9281,3747C9538,3654 9386,3891 9204,3857C9118,3837 9050,3781 9060,3718C9075,3617 9219,3660 9210,3709C9222,3561 9130,3566 9080,3593C9107,3537 9101,3480 9075,3423C9017,3471 8996,3523 9005,3578C8931,3550 8858,3523 8850,3638C8947,3592 9004,3639 9000,3708C8994,3790 8886,3808 8818,3808C8751,3808 8700,3763 8687,3690C8678,3643 8759,3661 8805,3673L8765,3558C8757,3596 8706,3625 8685,3627C8659,3630 8670,3588 8665,3567L8622,3585L8665,3754L8715,3803L8692,3858L8699,3887C9184,3883 9651,4029 10108,4251L10124,4226L10118,4147L10190,4120L10318,3931L10216,3824ZM9448,3827L9488,3907L9410,3947L9375,3865L9448,3827Z" style="fill:white;fill-rule:nonzero;"/>
        </g>
        <g transform="matrix(0.0246374,0,0,0.0246374,-91.4515,-78.344)">
            <path d="M8163,4705L8393,4628L8368,4538C8450,4424 8506,4303 8463,4143L8505,4045C8700,4057 8816,3842 8638,3683C8458,3521 8261,3748 8313,3905L8228,4083C8064,4203 7988,4475 8115,4575L8163,4705Z" style="fill-rule:nonzero;"/>
        </g>
        <g transform="matrix(0.0246374,0,0,0.0246374,-91.4515,-78.344)">
            <path d="M8389,3871L8440,3863C8436,3789 8495,3745 8550,3784C8621,3834 8581,3913 8518,3913L8526,3961C8639,3961 8684,3820 8575,3735C8498,3675 8376,3745 8389,3871ZM8290,4145C8260,4197 8323,4223 8348,4178L8455,3975C8472,3944 8438,3885 8403,3948L8290,4145ZM8277,4430L8317,4478C8360,4443 8428,4295 8411,4207L8356,4241C8347,4303 8315,4382 8277,4430ZM8168,4437L8123,4495C8079,4406 8148,4236 8213,4185L8243,4228C8193,4293 8164,4352 8168,4438L8168,4437ZM8240,4678L8300,4658L8268,4520C8256,4472 8185,4475 8203,4540L8240,4678Z" style="fill:white;fill-rule:nonzero;"/>
        </g>
    </g>
    <g transform="matrix(1.89566,0,0,1.89566,182.229,178.072)">
        <g transform="matrix(0.0246374,0,0,0.0246374,-91.4515,-78.344)">
            <path d="M1115,1971L1325,2249L1300,2319L1373,2334L1423,2428L2716,1925L2708,1871L2759,1826L2703,1773L2713,1435L2448,1345C2352,1321 2287,1337 2258,1400C2193,1347 2143,1367 2078,1405L1820,1024L1549,1117L1638,1575C1532,1589 1441,1604 1448,1678C1374,1671 1307,1680 1260,1753L1115,1971Z" style="fill-rule:nonzero;"/>
        </g>
        <g transform="matrix(0.0246374,0,0,0.0246374,-91.4515,-78.344)">
            <path d="M1605,1308L1495,963C1548,1020 1624,1065 1689,1043C1755,1020 1803,930 1805,850L1915,1195C1862,1137 1786,1093 1721,1115C1655,1138 1607,1227 1605,1308Z" style="fill:white;fill-rule:nonzero;stroke:black;stroke-width:40px;"/>
        </g>
        <g id="half_lions_crown" transform="matrix(0.0246374,0,0,0.0246374,-91.4515,-78.344)">
            <path d="M1177,1986L1293,1803C1153,1583 1487,1564 1656,1575L1629,1437C1260,1379 931,1533 1177,1926L1177,1986Z" style="fill-rule:nonzero;"/>
            <g>
                <circle cx="1079" cy="1563" r="68" style="fill:white;stroke:black;stroke-width:60px;"/>
                <circle cx="1170" cy="1480" r="68" style="fill:white;stroke:black;stroke-width:60px;"/>
                <circle cx="1280" cy="1420" r="68" style="fill:white;stroke:black;stroke-width:60px;"/>
                <circle cx="1405" cy="1400" r="68" style="fill:white;stroke:black;stroke-width:60px;"/>
                <circle cx="1524" cy="1410" r="68" style="fill:white;stroke:black;stroke-width:60px;"/>
                <circle cx="1635" cy="1408" r="68" style="fill:white;stroke:black;stroke-width:60px;"/>
                <circle cx="1046" cy="1684" r="68" style="fill:white;stroke:black;stroke-width:60px;"/>
                <circle cx="1076" cy="1799" r="68" style="fill:white;stroke:black;stroke-width:60px;"/>
                <circle cx="1156" cy="1891" r="68" style="fill:white;stroke:black;stroke-width:60px;"/>
            </g>
            <path d="M1203,1807C1041,1515 1391,1485 1613,1479C1642,1479 1649,1513 1607,1519C1469,1537 1084,1523 1235,1786C1245,1804 1212,1823 1203,1807ZM1701,1467L1736,1557C1748,1588 1780,1573 1770,1547L1736,1453C1729,1432 1690,1439 1701,1467Z" style="fill:white;fill-rule:nonzero;"/>
        </g>
        <g transform="matrix(0.0246374,0,0,0.0246374,-91.4515,-78.344)">
            <path d="M1476,959L1821,849C1763,902 1713,980 1738,1042L1666,1074C1651,1007 1556,961 1476,959Z" style="fill:white;fill-rule:nonzero;stroke:black;stroke-width:40px;"/>
        </g>
        <g transform="matrix(0.0246374,0,0,0.0246374,-91.4515,-78.344)">
            <circle cx="1706" cy="1066" r="52" style="fill:white;stroke:black;stroke-width:40px;"/>
        </g>
        <g id="half_lions_crown1" serif:id="half_lions_crown" transform="matrix(-0.0189461,0.0157433,0.0157433,0.0189461,-33.7508,-99.2365)">
            <path d="M1177,1986L1293,1803C1153,1583 1487,1564 1656,1575L1629,1437C1260,1379 931,1533 1177,1926L1177,1986Z" style="fill-rule:nonzero;"/>
            <g>
                <circle cx="1079" cy="1563" r="68" style="fill:white;stroke:black;stroke-width:60px;"/>
                <circle cx="1170" cy="1480" r="68" style="fill:white;stroke:black;stroke-width:60px;"/>
                <circle cx="1280" cy="1420" r="68" style="fill:white;stroke:black;stroke-width:60px;"/>
                <circle cx="1405" cy="1400" r="68" style="fill:white;stroke:black;stroke-width:60px;"/>
                <circle cx="1524" cy="1410" r="68" style="fill:white;stroke:black;stroke-width:60px;"/>
                <circle cx="1635" cy="1408" r="68" style="fill:white;stroke:black;stroke-width:60px;"/>
                <circle cx="1046" cy="1684" r="68" style="fill:white;stroke:black;stroke-width:60px;"/>
                <circle cx="1076" cy="1799" r="68" style="fill:white;stroke:black;stroke-width:60px;"/>
                <circle cx="1156" cy="1891" r="68" style="fill:white;stroke:black;stroke-width:60px;"/>
            </g>
            <path d="M1203,1807C1041,1515 1391,1485 1613,1479C1642,1479 1649,1513 1607,1519C1469,1537 1084,1523 1235,1786C1245,1804 1212,1823 1203,1807ZM1701,1467L1736,1557C1748,1588 1780,1573 1770,1547L1736,1453C1729,1432 1690,1439 1701,1467Z" style="fill:white;fill-rule:nonzero;"/>
        </g>
        <g transform="matrix(0.0246374,0,0,0.0246374,-91.4515,-78.344)">
            <circle cx="1818" cy="1404" r="50" style="fill:white;stroke:black;stroke-width:30px;"/>
            <circle cx="1843" cy="1466" r="50" style="fill:white;stroke:black;stroke-width:30px;"/>
            <circle cx="1865" cy="1526" r="50" style="fill:white;stroke:black;stroke-width:30px;"/>
        </g>
        <g transform="matrix(0.0246374,0,0,0.0246374,-91.4515,-78.344)">
            <path d="M1693,1320C1740,1245 1805,1242 1873,1253M1768,1254L1732,1149M1693,1161L1773,1138" style="fill:none;fill-rule:nonzero;stroke:white;stroke-width:40px;"/>
        </g>
        <g transform="matrix(0.0246374,0,0,0.0246374,-91.4515,-78.344)">
            <path d="M2329,1828C2290,1833 2262,1860 2266,1888C2269,1917 2303,1937 2341,1932C2380,1927 2408,1900 2404,1872C2401,1843 2367,1823 2329,1828ZM1652,2078C1617,2095 1599,2129 1612,2156C1625,2182 1663,2189 1698,2172C1733,2155 1751,2121 1738,2094C1725,2068 1687,2061 1652,2078ZM1296,1861C1261,1998 1332,2034 1356,1930L1431,2054C1342,2015 1336,2089 1380,2115C1485,2176 1615,2132 1595,2000C1583,1923 1504,1929 1498,2011C1439,1998 1426,1881 1525,1885C1504,1847 1491,1791 1511,1741C1561,1765 1595,1807 1608,1847C1659,1785 1728,1815 1720,1900C1641,1864 1600,1910 1651,1976C1737,2087 1915,2053 1936,1875C1956,1703 1824,1818 1824,1905L1745,1711C1890,1811 1992,1675 1773,1625L2003,1535C1874,1692 2015,1781 2063,1594L2131,1774C2043,1709 1921,1758 2026,1834C2126,1906 2300,1865 2288,1731C2279,1643 2184,1660 2179,1730C2150,1701 2121,1583 2241,1620C2229,1572 2233,1523 2264,1479C2313,1495 2327,1561 2328,1601C2410,1545 2475,1608 2434,1686C2389,1609 2315,1651 2334,1716C2376,1862 2531,1811 2586,1686C2634,1578 2519,1620 2494,1669L2491,1500C2551,1582 2670,1615 2545,1428L2654,1478L2629,1768L2573,1816L2614,1866L2614,1905L1490,2331L1464,2296L1484,2219L1399,2208L1209,1954L1296,1861ZM1951,1983L2054,2021L2098,1928L1998,1890L1951,1983Z" style="fill:white;fill-rule:nonzero;"/>
        </g>
        <g transform="matrix(0.0246374,0,0,0.0246374,-91.4515,-78.344)">
            <path d="M2590,6385C3358,6945 3316,7520 3020,8175C2846,8560 3320,8761 3590,8670C3818,8593 3978,8737 3930,8950C3983,9106 3903,9204 3785,9255C3769,9369 3660,9439 3565,9460L3525,9315C3187,9339 2839,9093 2545,8885C2038,8526 2863,8255 2110,7625L2590,6385Z" style="fill-rule:nonzero;"/>
        </g>
        <g transform="matrix(0.0246374,0,0,0.0246374,-91.4515,-78.344)">
            <path d="M2570,6530C3199,6998 3121,7549 2910,8105C2744,8542 3248,8955 3545,8750C3658,8749 3672,8804 3670,8880C3603,8738 3578,8893 3318,8880C3439,8958 3753,8771 3683,9083C3546,8846 3492,9015 3243,8945C3344,9091 3552,8903 3618,9093L3448,9060C3497,9115 3527,9173 3523,9235C3349,9245 3334,9070 3205,9035C3209,9096 3231,9146 3265,9190C3043,9104 3039,8984 2960,8908L3008,9068C2861,9040 2874,8850 2800,8778L2828,8933C2693,8926 2699,8688 2626,8624L2670,8825C2181,8480 3053,8400 2190,7430C2227,7343 2315,7432 2360,7480C2704,7841 2696,8179 2582,8517C2729,8687 2893,8832 3094,8916C2809,8712 2721,8504 2720,8293C2720,7973 2638,7683 2438,7407C2295,7209 2395,6976 2468,6772C2857,7044 2907,7453 2942,7860C2993,7480 2907,7026 2505,6685L2570,6530ZM3853,8830C3838,8718 3767,8698 3676,8713C3687,8741 3692,8773 3729,8789C3777,8765 3813,8807 3853,8830ZM3674,8868C3846,8799 3916,9099 3807,9139C3807,9075 3801,9019 3736,9011C3758,8967 3739,8895 3674,8868ZM3608,9137C3709,9105 3688,9265 3641,9331C3625,9243 3530,9162 3608,9137Z" style="fill:white;fill-rule:nonzero;"/>
        </g>
        <g transform="matrix(0.0246374,0,0,0.0246374,-91.4515,-78.344)">
            <path d="M3330,5825C3305,5903 3322,5969 3295,6030L3240,5930L3210,6185L3140,5995L3135,6340C3072.34,6284 3027.18,6211.06 3005,6130C2963,6257 3016,6383 3050,6510C2985,6456 2916,6413 2870,6315C2843,6403 2862,6492 2895,6580C2794,6547 2753,6460 2710,6375C2753,6507 2738,6639 2699,6771L2620,6640L2605,6915L2495,6815C2497,6865 2535,6924 2500,6965C2428,6956 2458,7015 2460,7055C2326,7344 2279,7692 2000,7885C1865,8391 914,8630 1460,9345C1642,9234 1946,9363 1920,9560C2033,9700 2000,9852 1970,10005L1660,9945C1584,10065 1489,10120 1390,10080C874,9872 724,9235 645,8835C945,8417 1146,7967 1075,7430C605,7678 105,7461 105,6825C105,6617 71,6544 5,6423L175,6555C188,6383 167,6220 80,6075C187,6107 288,6150 310,6320C408,6114 322,5991 155,5905C289,5861 416,5851 510,6005C558,5830 485,5705 340,5610C510,5568 641,5665 685,5890C780,5625 648,5457 440,5390C604,5337 814,5337 890,5610C919,5403 780,5278 605,5170C730,5169 840,5224 945,5303C900,5133 450,5056 450,4670C450,4402 783,4030 313,4053C410,3913 538,3931 655,4050C633,3891 704,3793 850,3713C811,3807 790,3912 850,4000C842,3882 888,3803 960,3745C948,3833 959,3915 1000,3990C1019,3915 1053,3849 1145,3820C1013,4190 1460,4362 1460,4735C1460,5086 1232,5034 1232,5295L1232,5520C1232,6065 483,6444 483,6845C483,7111 695,7218 930,7000C1089,6852 1058,6697 1375,6385C1642,5794 1730,5177 1575,4535C1322,3489 4290,2789 3330,5825Z" style="fill-rule:nonzero;"/>
        </g>
        <g transform="matrix(0.0246374,0,0,0.0246374,-91.4515,-78.344)">
            <path d="M1660,9388L1725,9475C1769,9474 1795,9512 1823,9546C1833,9394 1757,9375 1660,9388ZM1838,9843C1879,9724 1847,9617 1725,9580C1693,9624 1695,9668 1710,9713C1786,9710 1811,9783 1838,9843ZM1440,9961C1557,9966 1597,9786 1476,9753L1464,9852C1503,9911 1480,9936 1440,9961ZM1433,9855C1380,9795 1424,9721 1368,9643C1444,9734 1475,9641 1555,9748C1553,9636 1398,9595 1308,9525C1778,9625 1518,9770 1698,9835C1688,9736 1692,9633 1560,9573C1608,9562 1657,9551 1705,9570C1668,9466 1478,9583 1414,9510C1516,9510 1619,9446 1673,9465C1558,9300 1452,9569 1355,9425C783,8579 1805,8304 1890,7850C2448,7275 2191,6414 1950,6488C2158,6409 2246,6596 2340,6715C2558,6292 2832,5864 3250,5545C3830,3130 1640,3691 1730,4485C1891,5534 1763,5628 1560,6410C1021,6910 1305,6907 893,7198C624,7386 375,7143 375,6873C375,6276 1145,6088 1145,5485C1145,5332 1051,5225 1175,5023C1471,4540 1040,4248 1025,4110C998,4263 1345,4523 1090,5108C1040,4786 1299,4523 778,4040C1190,4597 970,4718 1045,5115C836,4863 1013,4501 855,4235C893,4518 777,4788 975,5120C650,4808 858,4370 720,4145C752,4497 587,4762 935,5145C1048,5270 1077,5270 1077,5485C1077,5976 268,6283 268,6865C268,7111 417,7365 690,7365C1108,7365 1255,6838 1380,6890C1041,7417 1511,8077 790,8808C790,8904 782,9064 830,9155L910,9010C877.421,9154.76 881.893,9305.43 923,9448L995,9225C992,9352 943,9478 1025,9605L1085,9375C1124,9533 1028,9702 1205,9835C1211,9713 1208,9592 1175,9470C1272,9532 1227,9895 1433,9855ZM793,5040C434,4727 646,4371 650,4190C730,4418 538,4670 793,5040Z" style="fill:white;fill-rule:nonzero;"/>
        </g>
        <g transform="matrix(0.0246374,0,0,0.0246374,-91.4515,-78.344)">
            <path d="M2082,6315C2612,5988 2905,5416 3128,4855C2807,5365 2507,5894 2082,6315ZM1600,6510C1996,6029 2090,5393 2120,4790C1980,5377 1867,5974 1600,6510ZM1780,7930C1931,7701 2121,6550 1735,6725C2029,6845 1821,7610 1780,7930ZM1055,9230C961,9105 928,8944 900,8780C1695,7850 930,8205 1490,6980C1287,7629 1294,8465 1655,8025C1640,8117 1523,8229 1335,8295C1185,8569 920,8711 1055,9230Z" style="fill-rule:nonzero;"/>
        </g>
        <g transform="matrix(0.0246374,0,0,0.0246374,-91.4515,-78.344)">
            <path d="M3083,5018C3391,5271 3973,5532 4275,5438C4286,5357 4337,5283 4395,5248L4470,5460C4673,5411 4872,5525 4815,5805C4881,5939 4856,6068 4790,6195C4731.31,6096.44 4629.14,6031.42 4515,6020C4584,6144 4625,6272 4595,6410C4543,6355 4503,6282 4420,6270C4186,6350 4097,6160 4020,6040C3623,5915 3227,5774 2830,5725C2794,5862 2640,5880 2425,5838C2361,5880 2283,5855 2218,5840C2258,5828 2292,5803 2295,5770C2212,5776 2141,5819 2040,5765C2066,5752 2093,5739 2100,5700C2054,5724 2010,5748 1945,5765C1933,5718 1969,5670 1995,5623L1903,5693C1869,5625 1888,5558 1900,5490L1858,5578C1806,5519 1872,5417 1885,5335L1845,5380C1834,5296 1853,5220 1895,5150L1840,5180C1841,5128 1854,5077 1875,5025L1820,5055L1855,4885L1800,4900C1820,4851 1825,4832 1825,4770C1693,4583 1675,3985 1675,3985L3080,3985C3173,4347 3379,4731 3083,5018Z" style="fill-rule:nonzero;"/>
        </g>
        <g transform="matrix(0.0246374,0,0,0.0246374,-91.4515,-78.344)">
            <path d="M1850,4664C1900,4608 1950,4525 1970,4464C1892,4494 1828,4515 1850,4664ZM1876,4773C1956,4730 1979,4644 1975,4573C1917,4612 1886,4637 1876,4773ZM1896,4998C1962,4951 1982,4860 2006,4798C1962,4722 1905,4854 1896,4998ZM1939,5074C1990,5053 2014,5025 2058,4990C2026,4887 1959,4947 1939,5074ZM1920,5248C1999,5218 2019,5167 2091,5124C2047,5048 1940,5121 1920,5248ZM1949,5395C2027,5366 2033,5304 2105,5261C2085,5204 1954,5245 1949,5395ZM1953,5558C2031,5528 2044,5442 2155,5385C2125,5366 1939,5391 1953,5558ZM2030,5668C2149,5661 2276,5495 2216,5458C2186,5438 2083,5551 2030,5668ZM2640,5803C2758,5801 2782,5710 2725,5693C2668,5677 2719,5732 2640,5803ZM2500,5797C2618,5794 2677,5690 2595,5660C2520,5633 2579,5726 2500,5797ZM2389,5796C2493,5768 2533,5623 2461,5614C2383,5605 2480,5696 2389,5796ZM2198,5723C2305,5714 2437,5611 2338,5543C2251,5483 2311,5642 2198,5723ZM4184,5594L4171,5549C4272,5538 4335,5515 4358,5436L4358,5544C4307,5580 4242,5598 4184,5594ZM4391,5726L4178,5713L4188,5655C4271,5657 4336,5629 4404,5605C4398,5645 4411,5674 4426,5696L4391,5726ZM4365,5903C4344,5865 4345,5825 4360,5788L4144,5766L4088,5820L4365,5903ZM4495,5529C4533,5518 4556,5549 4529,5571C4500,5595 4528,5637 4550,5648C4575,5659 4571,5694 4536,5693C4429,5687 4422,5550 4495,5529ZM4524,5740C4562,5752 4558,5776 4524,5778C4491,5779 4458,5856 4500,5893C4534,5923 4484,5950 4454,5933C4340,5865 4419,5706 4524,5740ZM4350,5990C4384,6012 4382,6042 4348,6043C4263,6043 4303,6119 4346,6159C4367,6178 4349,6218 4320,6199C4156,6090 4227,5911 4350,5990ZM4591,5567C4606,5490 4752,5568 4741,5693C4685,5595 4576,5646 4591,5567ZM4558,5823C4647,5732 4763,5975 4758,6036C4683,5921 4492,5890 4558,5823ZM4395,6075C4471,6002 4541,6206 4543,6273C4483,6158 4331,6136 4395,6075ZM4173,6040C4171,6002 4191,5977 4213,5953C4075,5840 3848,5846 3705,5755C4068,5870 4237,5644 3958,5560C2685,5179 3174,4886 2520,5083C2669,4894 2840,4891 3023,4975C3134,4957 3259,4569 2978,3985L2018,3985C1914,4592 2117,4878 2255,5335C2854,5678 3583,5673 4173,6040ZM3938,5675C3179,5736 2584,5435 2358,5105C2788,5488 3349,5609 3938,5675Z" style="fill:white;fill-rule:nonzero;"/>
        </g>
        <g transform="matrix(0.0246374,0,0,0.0246374,-91.4515,-78.344)">
            <path d="M1645,4553C1512,4541 1494,4408 1505,4330L1395,4428C1474,4245 1358,4103 1410,3935C1358,3973 1357,4033 1350,4090C1184,3886 1378,3727 1400,3545C1325,3613 1334,3721 1255,3790C1153,3628 1205,3467 1295,3305L1165,3485C1129,3342 1168,3198 1245,3055C1190,3122 1135,3191 1060,3200C1182,3074 1091,2822 1250,2690C1083,2518 1162,2345 1470,2348C1496,2274 1589,2253 1665,2255C1720,2188 1788,2152 1870,2145C1885,2038 2003,2098 2085,2100C2111,2003 2172,1949 2305,1985C2358,1949 2412,1941 2465,1945C2506,1909 2552,1901 2600,1905C2650,1869 2696,1879 2740,1910C2864,1818 3068,1761 3040,2065C3184,2116 3238,2342 3485,2320C3442,2416 3360,2436 3270,2440C3383,2577 3479,2747 3675,2725C3614,2809 3519,2828 3405,2813C3537,2940 3745,3043 3800,3200L3650,3140C3738,3257 3822,3375 3825,3505C3769,3449 3712,3403 3650,3400C3738,3494 3854,3565 3900,3695C3831,3661 3763,3624 3688,3635C3912,3704 3975,3843 3935,4045C3987,4148 3966,4231 3905,4285C3895,4424 3891,4565 3765,4645C3822,4859 3602,4924 3598,5113L3528,5075C3500,5181 3415,5259 3270,5278L3295,5078L3118,5110C3245,4913 3177,4903 3143,4778C3086,4845 3026,4906 2930,4895C3035,4749 2904,4615 2963,4475C2888,4573 2980,4785 2755,4788C2882,4649 2719,4513 2760,4373C2708,4483 2680,4581 2718,4698C2565,4651 2554,4496 2573,4318C2526,4405 2537,4498 2558,4593C2445,4506 2348,4410 2335,4258C2314,4365 2336,4470 2408,4578C2298,4567 2219,4458 2143,4343C2192,4504 2132,4587 2035,4643C2044,4559 2041,4484 1965,4460C1890,4501 1818,4649 1800,4765C1728.8,4710.94 1674.91,4637.24 1645,4553Z" style="fill-rule:nonzero;"/>
        </g>
        <g transform="matrix(0.0246374,0,0,0.0246374,-91.4515,-78.344)">
            <path d="M2569,3531C2648,3604 2741,3544 2731,3455C2684,3496 2629,3520 2569,3531ZM2623,3413C2623,3413 2571,3284 2552,3215C2531,3135 2637,3126 2645,3157C2699,3379 2736,3405 2636,3456C2525,3513 2559,3479 2398,3314C2335,3250 2474,3183 2496,3244C2523,3314 2623,3413 2623,3413ZM2699,3129C2564,2977 2762,2931 2699,3129ZM2328,3266C2145,3175 2312,3060 2328,3266ZM1565,2640C1642,2953 1931,2982 2095,3175C2090,3123 1951,3041 1991,2990C2058,2907 2200,3160 2405,3073C2364,2938 2196,3062 2103,2865C2303,2878 2466,2816 2600,2683C2667,2835 2439,2947 2515,3030C2634,2974 2687,2931 2710,2780C2714,2751 2772,2738 2775,2780C2779,2568 2921,2284 2655,2153C2876,1766 3030,2023 2816,2082C2843,2082 2920,2052 2946,2055C3012,1785 2718,1927 2593,2150L2648,1980L2503,2180C2482,2124 2525,2068 2536,2013C2476,2068 2463,2169 2385,2215C2371,2143 2436,2093 2443,2030C2364,2087 2364,2200 2278,2253C2245,2165 2301,2109 2313,2038C2258,2126 2222,2111 2218,2313C2184,2229 2170,2201 2175,2118C2151,2182 2123,2213 2170,2338C2136,2299 2118,2200 2023,2186C2063,2249 2105,2292 2120,2365C2077,2311 2045,2232 1919,2226C2000,2275 2048,2315 2065,2359C2000,2374 1906,2244 1831,2274C1880,2305 1953,2323 1975,2365C1904,2386 1845,2309 1785,2303C1811,2337 1852,2355 1863,2405C1760,2426 1660,2347 1555,2348C1634,2390 1863,2439 1740,2491C1428,2324 1121,2439 1293,2625L1348,2568C1274,2514 1355,2353 1678,2523C1377,2577 1248,2744 1203,2958C1283,2880 1339,2694 1500,2640C1494,2713 1350,2780 1315,2903C1280,3022 1300,3099 1228,3265C1303,3190 1337,3063 1354,2941C1370,2821 1558,2733 1565,2640ZM2829,3324C2941,3569 3189,3656 3273,3973C3274,3665 2950,3557 2819,3161L2815,3043C2956,3550 3469,3625 3270,4120C3219,3798 2968,3743 2844,3496C2855,3439 2839,3381 2829,3324ZM2834,2844C2996,3332 3362,3371 3395,3745C3278,3392 3077,3540 2827,2997L2834,2844ZM3288,3383C3421.84,3414.3 3534.91,3503.87 3596,3627C3670,3757 3803,3737 3788,3833C3387,3644 3727,3714 3288,3383ZM3375,3115C3454,3128 3608,3212 3649,3298C3529,3287 3409,3219 3375,3115ZM3563,3425C3594,3438 3715,3526 3739,3570C3697,3570 3580,3524 3563,3425ZM3725,3873C3778,3835 3887,3900 3887,4000C3858,3961 3761,3912 3725,3873ZM3443,3608C3617,4019 3840,3954 3873,4173C3699,3918 3595,4186 3443,3608ZM3438,3928C3567,4134 3922,4044 3783,4515C3801,4149 3499,4191 3438,3928ZM3395,4095C3448,4193 3673,4223 3680,4385C3684,4471 3593,4489 3653,4634C3723,4802 3539,4827 3563,4975C3500,4848 3649,4785 3578,4658C3514,4545 3613,4518 3587,4389C3552,4215 3373,4224 3395,4095ZM3370,5148C3481,4983 3477,4831 3450,4750C3378,4530 3628,4538 3310,4148C3300,4261 3484,4317 3383,4695C3344,4841 3458,4870 3370,5148ZM3220,5018C3324,4907 3149,4789 3248,4560C3349,4324 3054,4254 3115,3980C3122,4205 3325,4238 3333,4425C3339,4595 3221,4638 3285,4780C3334,4890 3319,4973 3220,5018ZM3038,4205L3010,4283C3090,4358 3099,4452 3073,4555C3052,4635 3033,4630 3063,4755C3068,4550 3278,4455 3038,4205ZM2803,3608L2831,3558C2907,3716 3044,3890 2998,4080C2967,3908 2877,3761 2803,3608ZM2689,3669L2770,3625C2845,3826 3007,4028 2934,4225C2910,3997 2756,3819 2689,3669ZM2596,3685L2645,3679C2667,3816 2877,3972 2913,4280C2927,4410 2855,4358 2863,4593C2791,4441 2907,4350 2830,4168C2763,4010 2615,3956 2596,3685ZM2890,2580C3049,2657 3124,2825 3182,2991C3257,3204 3394,3260 3442,3375C3320,3241 3209,3322 3085,3175C3014,3091 2958,2895 2850,2795L2865,2710C3062,2837 3076,3146 3223,3195C3071,3014 3148,2817 2878,2648L2890,2580ZM2885,2450L2885,2526C3197,2599 3195,3017 3495,3043C3256,2876 3154,2490 2885,2450ZM2866,2308L2880,2384C3130,2372 3255,2680 3443,2743C3250,2605 3132,2323 2866,2308ZM2788,2188L2838,2255C3071,2243 3218,2421 3338,2365C3138,2330 2993,2128 2788,2188ZM2650,4013C2866,4233 2641,4355 2653,4510C2568,4395 2746,4295 2630,4105L2650,4013ZM2245,4355C2160,4206 2251,4090 2325,3928C2393,3779 2334,3631 2320,3485C2385,3559 2439,3644 2535,3680C2555,3833 2601,3894 2585,4023C2565,4176 2444,4254 2480,4373C2360,4258 2554,4125 2518,3963C2461,3713 2498,3654 2395,3618C2402,3620 2440,3859 2353,4008C2281,4129 2241,4186 2245,4355ZM2063,3877C2224,3627 1980,3400 2079,3234L2139,3283C2060,3390 2284,3573 2133,3847C2090,3926 2050,4017 2043,4090C2425,3591 2125,3435 2175,3308L2261,3412C2401,3977 1919,3982 2104,4455C1978.13,4287.45 1962.04,4060.64 2063,3877ZM1770,4570C1723,4379 1868,4326 1835,4207C1791,4045 1868,3909 1941,3810C2114,3575 1866,3329 1965,3163L2035,3210C1922,3315 2139,3609 2013,3787C1958,3865 1858,4040 1891,4212C1923,4381 1792,4354 1770,4570ZM1638,4460C1603,4331 1711,4248 1663,4134C1598,3978 1786,3800 1821,3680C1875,3491 1735,3259 1847,3087L1918,3135C1799,3240 1938,3504 1896,3682C1874,3775 1695,3960 1728,4132C1760,4301 1657,4294 1637,4460L1638,4460ZM1544,2786L1576,2843C1331,2956 1550,3240 1275,3543C1429,3324 1316,2940 1544,2786ZM1515,4185C1490,3788 1640,3773 1676,3592C1713,3403 1574,3172 1703,3000L1773,3048C1654,3152 1793,3416 1751,3595C1707,3782 1554,3856 1515,4185ZM1365,3853C1374,3722 1522,3664 1518,3460C1515,3269 1452,3068 1604,2896L1644,2946C1526,3051 1585,3257 1576,3440C1564,3671 1420,3742 1365,3853Z" style="fill:white;fill-rule:nonzero;"/>
        </g>
        <g transform="matrix(0.0246374,0,0,0.0246374,-91.4515,-78.344)">
            <path d="M2190,2785C2104,2827 2151,2745 1962,2790C1849,2817 1751,2607 1660,2555C1809,2544 1967,2523 2110,2464C2141,2542 1996,2539 2190,2785ZM2051,2521C2008,2565 1834,2592 1767,2587C1851,2635 2044,2611 2051,2521ZM1959,2741C1932,2719 1916,2687 1925,2653C1905,2661 1859,2661 1829,2653C1866,2697 1914,2745 1959,2741ZM2494,2698C2585,2669 2533,2602 2618,2540C2696,2483 2668,2291 2695,2195C2564,2276 2417,2350 2272,2405C2304,2483 2466,2385 2494,2698ZM2370,2408C2453,2381 2582,2321 2638,2283C2603,2356 2455,2445 2370,2408ZM2629,2344C2632,2401 2627,2484 2591,2511C2586,2480 2579,2433 2549,2415C2568,2408 2613,2371 2629,2344Z" style="fill-rule:nonzero;"/>
        </g>
    </g>
    <g transform="matrix(1.89547,0,0,1.89547,201.725,167.295)">
        <g transform="matrix(0.0246374,0,0,0.0246374,-91.4515,-78.344)">
            <path d="M10480.6,8373.18C10536.7,8523.68 10582.8,8651.11 10618,8721C10211,10144 7855,10650 6503,10043L6509,9707L5398,9707C5395,9770 5417,9937 5390,10001C4116,10693 2274,10200 1469,9227C1439.18,8780.28 1588.65,8252.46 1859.99,7869.31L2022.88,8129.92C2022.88,8129.92 2020.37,8153.51 2024.05,8200.8C2025.58,8220.42 2028.6,8236.24 2034.51,8264.93C2042.34,8302.99 2058.94,8346.1 2074.04,8379.4C2090.36,8415.36 2104.92,8440.07 2104.92,8440.07C2104.92,8440.07 2127.48,8411.33 2138.72,8398.43C2147.59,8388.26 2164.53,8370.74 2170.35,8364.75C2178.47,8431.8 2174.16,8490.08 2164.33,8542.15L2166.78,8542.15L2166,8543C2662.06,9168.67 3714.69,9564.5 4643.55,9288.02L4733.86,9288.02L4733.86,9097.45C4744.88,9044.76 4755.05,8992.99 4769.51,8952.73L4825.84,8872.48L5151.51,8790.76L5051.68,8668.04C5131.68,8704.48 5213.24,8733.17 5297,8752C5529,8733 5792,8735 5955,8735C6119,8735 6340,8736 6576,8760C6731.32,8745.88 6879.66,8707.7 7020.33,8651.64C7027.13,8713.59 7025.23,8781.6 7031.6,8834.83C7020.29,8833.44 7009.14,8831.88 6998.19,8830.13C7010.1,8832.73 7021.5,8836.35 7032.36,8840.82C7041.11,8905.72 7063.71,8946.43 7133.03,8922.59C7164.26,8965.91 7181,9016.04 7181,9056C7188.4,9052.95 7195.72,9049.8 7202.96,9046.53C7267.34,9113.16 7418.43,9117.76 7235.3,9236.56C7573.18,9166.5 7810.3,9080.77 8001.22,8995.94C7780.95,9140.8 7516.82,9243.17 7170,9237L7155,9296C8054,9551 9539,9068 9825,8357C9822.19,8352.65 9819.28,8348.36 9816.29,8344.12C9850.06,8290.94 9878.11,8247.71 9880,8250C9987.7,8123.51 9993.52,8001.19 9972.23,7889.1C10094.9,8068.54 10295.4,8220 10480.6,8373.18ZM2230.95,8452.61L2241.35,8468.57C2236.88,8472.56 2232.41,8476.62 2227.95,8480.76C2229.08,8471.39 2230.08,8462 2230.95,8452.61ZM4570.66,9288.02C4546.25,9289.28 4521.97,9289.25 4497.8,9288.02L4570.66,9288.02Z"/>
        </g>
        <g transform="matrix(0.0246374,0,0,0.0246374,-91.4515,-78.344)">
            <path d="M10225.4,8160.9C10304.1,8354.94 10372.5,8555.17 10463,8715C10040,9627 8956,10173 7870,10173C7131,10173 6729,10005 6608,9933C6600,9723 6575,9424 6585,9213C6596,8988 6996,9181 6996,9053C6996,8970 6753,8953 6680,8945C6680,8945 6854,8982 6853,9031C6851,9077 6543,8950 6515,9215L6508,9590L5395,9590L5395,9215C5373,9008 4994,9102 4993,9056C4991,9007 5143,8955 5143,8955C5070,8963 4928,8977 4931,9060C4937,9193 5266,9013 5300,9235C5333,9447 5317,9655 5310,9865C5244,9998 4934,10220 3820,10220C3064,10220 2093,9732 1645,9180C1627.69,8914.66 1716.2,8404.11 1953.87,8019.52L1976.33,8055.45C1939.14,8126.02 1914,8209.96 1914,8318C1914,8612 2872,9515 3955,9515C4566,9515 5251,9314 5251,9234C5251,9127 5065,9174 4964,9155C5100,9250 5102,9287 4965,9285C4929,9275 4893,9267 4870,9225C4855,9153 4860,9068 4875,9004C4912,8849 5628,8855 5955,8855C6282,8855 7008,8862 7045,9029C7059,9094 7071,9157 7048,9228C7032,9273 6998,9275 6925,9245C6863,9219 6835,9218 6911,9155C6810,9174 6636,9105 6636,9211C6636,9292 7394,9480 7720,9480C9414.51,9480 10050.5,8380.8 10084.5,8026.54C10128.1,8072.66 10175.7,8117.24 10225.4,8160.9Z" style="fill:white;"/>
        </g>
        <g transform="matrix(0.0246374,0,0,0.0246374,-91.4515,-78.344)">
            <path d="M1935,8598L2260,8920C2518,9176 2101,9587 1873,9325L1648,9068C1725,9134 1800,8996 1845,8925C1905,8831 1993,8756 1935,8598ZM1868,9165C2115,9500 2344,8983 2075,8835L1868,9165Z" style="fill-rule:nonzero;"/>
        </g>
        <g transform="matrix(0.0246374,0,0,0.0246374,-91.4515,-78.344)">
            <path d="M2433,9055L2700,9220C2556,9227 2534,9343 2480,9428C2427,9510 2371,9599 2428,9708L2135,9523C2266,9537 2319,9454 2368,9373C2423,9280 2493,9184 2433,9055ZM2733,9240L3095,9415L3030,9550C3036,9485 2990,9427 2880,9395L2813,9525C2861,9557 2931,9625 2993,9563L2905,9760C2914,9683 2822,9643 2770,9618L2693,9770C2770,9812 2838,9874 2920,9798L2853,9940L2470,9740C2567,9734 2621,9617 2665,9533C2712,9444 2772,9362 2733,9240ZM3118,9420L3388,9510C3331,9514 3291,9534 3275,9600C3244,9725 3161,9980 3328,9980C3466,9980 3469,9756 3485,9645C3493,9590 3478,9556 3430,9520L3750,9575C3585,9614 3617,9749 3593,9858C3571,9955 3553,10074 3673,10138L3395,10113L3413,10025C3097,10163 2978,9929 3133,9553C3156,9496 3163,9468 3118,9420ZM3940,9590L4391,9578L4396,9715C4370,9668 4331,9645 4219,9657L4229,9806C4287,9811 4361,9837 4385,9753L4395,9967C4365,9896 4292,9903 4234,9905L4242,10076C4330,10076 4378,10100 4413,9993L4416,10151L3952,10167C4074,10125 4058,9979 4056,9884C4055,9784 4068,9663 3940,9590ZM4455,9570L4475,9755C4500,9698 4549,9637 4633,9633L4708,9953C4735,10054 4669,10087 4628,10123L5008,10018C4929,10005 4886,10020 4858,9908L4775,9593C4908,9551 4932,9587 4993,9625L4950,9453L4455,9570ZM6625,9308L6850,9385L6955,9688L7130,9450L7328,9478C7195,9552 7228,9671 7224,9778C7219,9886 7222,10000 7313,10070L6993,10018C7142,9940 7087,9777 7110,9640L6893,9950L6780,9630C6748,9757 6704,9880 6809,9965L6605,9870L6603,9824C6652,9827 6671,9706 6683,9650C6706,9534 6749,9412 6625,9308Z" style="fill-rule:nonzero;"/>
        </g>
        <g transform="matrix(0.0246374,0,0,0.0246374,-91.4515,-78.344)">
            <path d="M7558,9509C7557.67,9509 7557.33,9509 7557,9509C7403.94,9509 7278,9640.36 7278,9800L7278,9800C7278,9959.64 7403.94,10091 7557,10091C7557.33,10091 7557.67,10091 7558,10091C7711.06,10091 7837,9959.64 7837,9800C7837,9640.36 7711.06,9509 7558,9509ZM7562,9583C7623.25,9583 7673.73,9683.5 7674,9806C7674,9928.88 7623.44,10030 7562,10030C7500.94,10028.9 7451,9928.13 7451,9806C7451.27,9684.25 7501.12,9584.09 7562,9583Z" style="fill-rule:nonzero;"/>
        </g>
        <g transform="matrix(0.0246374,0,0,0.0246374,-91.4515,-78.344)">
            <path d="M7785,9535L7998,9535L8235,9820C8223,9643 8235,9587 8100,9530L8390,9505C8291,9600 8325,9673 8343,10093L8010,9770C8012,9921 7988,10038 8128,10085L7780,10103C7917,10060 7898,9928 7900,9830C7902,9724 7935,9612 7785,9535ZM8445,9495L8713,9403C9157,9249 9317,9809 8933,9933L8590,10043C8749,9929 8689,9817 8645,9718C8605,9627 8605,9508 8445,9495ZM8860,9863C9090,9810 9004,9390 8720,9495L8860,9863Z" style="fill-rule:nonzero;"/>
        </g>
        <g transform="matrix(0.0246374,0,0,0.0246374,-91.4515,-78.344)">
            <path d="M9268,9435C9405,9391 9330,9214 9185,9278L9268,9435ZM8958,9308L9208,9175C9390,9078 9523,9247 9425,9410C9512,9444 9633,9528 9738,9468C9587,9726 9453,9546 9318,9518C9358,9588 9367,9702 9510,9663L9205,9825C9319,9734 9192,9623 9170,9520C9102,9446 9096,9316 8958,9308Z" style="fill-rule:nonzero;"/>
        </g>
        <g transform="matrix(0.0246374,0,0,0.0246374,-91.4515,-78.344)">
            <path d="M9561,8927C9454.14,9037.02 9447.19,9211.86 9545,9330C9643,9450 9809,9465 9916,9363C10023.2,9253.24 10030.5,9078.39 9933,8960C9835,8840 9668,8825 9561,8927ZM9592,8981C9635,8940 9748,8980 9824,9073C9899,9165 9926,9274 9883,9315C9840,9355 9731,9316 9656,9223C9580,9130 9549,9022 9592,8981Z" style="fill-rule:nonzero;"/>
        </g>
        <g transform="matrix(0.0246374,0,0,0.0246374,-91.4515,-78.344)">
            <path d="M9733,8798L9913,8570C9884,8682 9989,8748 10055,8808C10129,8874 10203,8994 10300,8915L10103,9175C10159,9052 10043,8991 9970,8915C9908,8851 9827,8763 9733,8798ZM10048,8658L9915,8553L10125,8200L10248,8288C10137,8305 10149,8342 10118,8388C10279,8513 10358,8650 10410,8623L10440,8690L10313,8888C10354,8742 10165,8615 10050,8503C10020,8548 10024,8612 10048,8658Z" style="fill-rule:nonzero;"/>
        </g>
        <g transform="matrix(0.0246374,0,0,0.0246374,-91.4515,-78.344)">
            <g transform="matrix(1,0,0,1.03501,0,-359.939)">
                <path d="M6382,8746.86L6382,10100L5947,10280L5522,10090L5522,8746.86L6382,8746.86Z" style="fill:white;"/>
            </g>
            <g transform="matrix(1,0,0,1.01149,0,-118.317)">
                <path d="M5642,8743.82L5642,9705C5642,9955 5882,9888 5882,9783C5882,9645 5719,9727 5800,9803C5630,9851 5615,9402 5865,9545C5775,9413 5864,9335 5950,9255C6035,9335 6125,9413 6035,9545C6285,9402 6270,9851 6100,9803C6181,9727 6017,9645 6017,9783C6017,9888 6257,9955 6257,9705L6257.02,8754.23L6423.01,8765.13L6422,9955C6422,10225 6146,10300 5950,10300C5754,10300 5477,10225 5477,9955L5477.71,8700.11L5642,8743.82ZM5947,10185C5970,10185 5994,10185 6019,10183C6176,10175 6365,10119 6365,9770C6365,9722 6310,9724 6310,9770C6310,10061 6212,10088 5947,10088C5682,10088 5585,10061 5585,9770C5585,9724 5530,9722 5530,9770C5530,10174 5782,10185 5947,10185Z"/>
            </g>
        </g>
    </g>
    <g id="crown" transform="matrix(0.0348792,0,0,0.0348792,104.386,8.67709)">
        <path d="M5495,1217L5495,1837C5381,1748 5300,1782 5225,1837C4986,1706 4769,1738 4570,1912C4193,1837 4198,2220 4013,2376L4250,3277L4140,3452L4343,3575C4141,3638 4227,3939 4410,3887C5458,3592 6347,3599 7410,3887C7593,3937 7679,3638 7478,3575L7680,3452L7570,3277L7807,2376C7622,2220 7627,1837 7250,1912C7051,1738 6834,1706 6595,1837C6520,1782 6439,1748 6325,1837L6325,1217L5495,1217Z" style="fill-rule:nonzero;"/>
        <path d="M5778,711L5816,495C5816,495 5543,482 5543,723L5543,120C5543,360 5826,352 5826,352C5826,352 5849,65 5609,65L6211,65C5971,65 5994,352 5994,352C5994,352 6277,360 6277,120L6277,723C6277,482 6004,495 6004,495L6042,711" style="fill:white;fill-rule:nonzero;stroke:black;stroke-width:80px;"/>
        <path d="M5910,221L5689,421L5910,621L6131,421L5910,221ZM5910,361C5942.91,361 5970,388.085 5970,421C5970,453.915 5942.91,481 5910,481C5877.09,481 5850,453.915 5850,421C5850,388.085 5877.09,361 5910,361Z" style="fill-rule:nonzero;"/>
        <g id="crown_half">
            <path d="M4566,972C3881,1006 3822,1755 4023,2180C4116,2377 4377,2196 4297,2058C4133,1775 4154,1293 4566,1272C4890,1255 5171,1583 5501,1589C5719,1593 5610,1317 5456,1275C5150,1191 4860,957 4566,972Z" style="fill-rule:nonzero;"/>
            <g>
                <circle cx="4013" cy="2247" r="140" style="fill:white;stroke:black;stroke-width:120px;"/>
                <circle cx="3883" cy="1972" r="140" style="fill:white;stroke:black;stroke-width:120px;"/>
                <circle cx="3818" cy="1615" r="140" style="fill:white;stroke:black;stroke-width:120px;"/>
                <circle cx="3898" cy="1275" r="140" style="fill:white;stroke:black;stroke-width:120px;"/>
                <circle cx="4163" cy="1027" r="140" style="fill:white;stroke:black;stroke-width:120px;"/>
                <circle cx="4461" cy="915" r="140" style="fill:white;stroke:black;stroke-width:120px;"/>
                <circle cx="4811" cy="897" r="140" style="fill:white;stroke:black;stroke-width:120px;"/>
                <circle cx="5116" cy="995" r="140" style="fill:white;stroke:black;stroke-width:120px;"/>
                <circle cx="5396" cy="1127" r="140" style="fill:white;stroke:black;stroke-width:120px;"/>
            </g>
            <path d="M4566,1092C3907,1114 3940,1777 4133,2131C4153,2170 4202,2135 4187,2107C3978,1706 4068,1157 4566,1152C4877,1149 5143,1420 5437,1454C5480,1459 5474,1403 5443,1394C5138,1312 4862,1081 4566,1092ZM5613,1434L5613,1962C5613,2005 5673,1993 5673,1962L5673,1434C5673,1390 5613,1402 5613,1434Z" style="fill:white;fill-rule:nonzero;"/>
            <path d="M5929,3445C5441,3445 4927,3510 4424,3642C4333,3666 4366,3801 4460,3777C4950,3655 5453,3585 5929,3585L5929,3445ZM5094,3163C4965,3180 4868,3247 4877,3313C4886,3378 4997,3418 5126,3400C5254,3383 5351,3316 5343,3250C5334,3185 5222,3145 5094,3163ZM5928,3389C5458,3388 4936,3432 4470,3552L4600,3367L4370,3239L4125,2382L4317,2217C4178,2376 4246,2546 4286,2705C4437,2650 4456,2502 4442,2342L4635,2932C4562,2806 4458,2781 4318,2815C4430,3317 4909,3331 5018,2956L5117,2937C5481,3364 5853,3041 5853,2603C5711,2603 5565,2607 5492,2809L5492,2274C5573,2447 5680,2484 5853,2484C5853,2364 5835,2181 5595,2107L5928,2107L5920,2978L5684,3173L5920,3368L5928,3389ZM5050,2749L5017,2754C4960,2395 4691,2382 4898,1952C5236,2290 4986,2391 5050,2749ZM5082,2744L5113,2740C5038,2502 5382,2424 5333,2667C5577,2396 5037,2141 5082,2744ZM5142,2794C5201,2786 5205,2849 5150,2856L4958,2889C4903,2900 4886,2839 4945,2828L5142,2794ZM4985,2761L4954,2767C4947,2517 4597,2557 4723,2770C4403,2594 4830,2176 4985,2761Z" style="fill:white;fill-rule:nonzero;"/>
        </g>
        <g id="crown_half1" serif:id="crown_half" transform="matrix(-1,0,0,1,11820,0)">
            <path d="M4566,972C3881,1006 3822,1755 4023,2180C4116,2377 4377,2196 4297,2058C4133,1775 4154,1293 4566,1272C4890,1255 5171,1583 5501,1589C5719,1593 5610,1317 5456,1275C5150,1191 4860,957 4566,972Z" style="fill-rule:nonzero;"/>
            <g>
                <circle cx="4013" cy="2247" r="140" style="fill:white;stroke:black;stroke-width:120px;"/>
                <circle cx="3883" cy="1972" r="140" style="fill:white;stroke:black;stroke-width:120px;"/>
                <circle cx="3818" cy="1615" r="140" style="fill:white;stroke:black;stroke-width:120px;"/>
                <circle cx="3898" cy="1275" r="140" style="fill:white;stroke:black;stroke-width:120px;"/>
                <circle cx="4163" cy="1027" r="140" style="fill:white;stroke:black;stroke-width:120px;"/>
                <circle cx="4461" cy="915" r="140" style="fill:white;stroke:black;stroke-width:120px;"/>
                <circle cx="4811" cy="897" r="140" style="fill:white;stroke:black;stroke-width:120px;"/>
                <circle cx="5116" cy="995" r="140" style="fill:white;stroke:black;stroke-width:120px;"/>
                <circle cx="5396" cy="1127" r="140" style="fill:white;stroke:black;stroke-width:120px;"/>
            </g>
            <path d="M4566,1092C3907,1114 3940,1777 4133,2131C4153,2170 4202,2135 4187,2107C3978,1706 4068,1157 4566,1152C4877,1149 5143,1420 5437,1454C5480,1459 5474,1403 5443,1394C5138,1312 4862,1081 4566,1092ZM5613,1434L5613,1962C5613,2005 5673,1993 5673,1962L5673,1434C5673,1390 5613,1402 5613,1434Z" style="fill:white;fill-rule:nonzero;"/>
            <path d="M5929,3445C5441,3445 4927,3510 4424,3642C4333,3666 4366,3801 4460,3777C4950,3655 5453,3585 5929,3585L5929,3445ZM5094,3163C4965,3180 4868,3247 4877,3313C4886,3378 4997,3418 5126,3400C5254,3383 5351,3316 5343,3250C5334,3185 5222,3145 5094,3163ZM5928,3389C5458,3388 4936,3432 4470,3552L4600,3367L4370,3239L4125,2382L4317,2217C4178,2376 4246,2546 4286,2705C4437,2650 4456,2502 4442,2342L4635,2932C4562,2806 4458,2781 4318,2815C4430,3317 4909,3331 5018,2956L5117,2937C5481,3364 5853,3041 5853,2603C5711,2603 5565,2607 5492,2809L5492,2274C5573,2447 5680,2484 5853,2484C5853,2364 5835,2181 5595,2107L5928,2107L5920,2978L5684,3173L5920,3368L5928,3389ZM5050,2749L5017,2754C4960,2395 4691,2382 4898,1952C5236,2290 4986,2391 5050,2749ZM5082,2744L5113,2740C5038,2502 5382,2424 5333,2667C5577,2396 5037,2141 5082,2744ZM5142,2794C5201,2786 5205,2849 5150,2856L4958,2889C4903,2900 4886,2839 4945,2828L5142,2794ZM4985,2761L4954,2767C4947,2517 4597,2557 4723,2770C4403,2594 4830,2176 4985,2761Z" style="fill:white;fill-rule:nonzero;"/>
        </g>
        <circle cx="5910" cy="1061" r="365" style="fill:white;stroke:black;stroke-width:120px;"/>
        <path d="M6257,1173C6257,1173 6085,1120 5910,1120C5735,1120 5563,1173 5563,1173M5992,711L5992,963C6100,963 6271,1009 6271,1009M5828,711L5828,963C5720,963 5549,1009 5549,1009" style="fill:none;fill-rule:nonzero;stroke:black;stroke-width:80px;"/>
        <g>
            <circle cx="5910" cy="1247" r="127" style="fill:white;stroke:black;stroke-width:60px;"/>
            <circle cx="5910" cy="1393" r="127" style="fill:white;stroke:black;stroke-width:60px;"/>
            <circle cx="5910" cy="1540" r="127" style="fill:white;stroke:black;stroke-width:60px;"/>
            <circle cx="5910" cy="1697" r="127" style="fill:white;stroke:black;stroke-width:60px;"/>
            <circle cx="5910" cy="1950" r="127" style="fill:white;stroke:black;stroke-width:60px;"/>
        </g>
        <path d="M6846,3600C6846,3600 7239,3582 7221,3672C7199,3778 6846,3600 6846,3600ZM6077,3514C6077,3514 6465,3447 6458,3538C6450,3646 6077,3514 6077,3514ZM5311,3544C5311,3544 5683,3416 5690,3507C5700,3615 5311,3544 5311,3544ZM4601,3671C4601,3671 4954,3496 4973,3586C4996,3691 4601,3671 4601,3671Z" style="fill-rule:nonzero;"/>
    </g>
</svg>
